<?xml version="1.0" standalone="no"?>
<!DOCTYPE svg PUBLIC "-//W3C//DTD SVG 20010904//EN"
 "http://www.w3.org/TR/2001/REC-SVG-20010904/DTD/svg10.dtd">
<svg version="1.0" xmlns="http://www.w3.org/2000/svg"
 width="2000.000000pt" height="2000.000000pt" viewBox="0 0 2000.000000 2000.000000"
 preserveAspectRatio="xMidYMid meet">

<g transform="translate(0.000000,2000.000000) scale(0.100000,-0.100000)"
fill="#000000" stroke="none">
<path d="M0 10000 l0 -10000 10000 0 10000 0 0 10000 0 10000 -10000 0 -10000
0 0 -10000z m9764 3960 c32 -74 65 -151 73 -170 8 -19 21 -48 29 -64 8 -16 14
-35 14 -43 0 -7 5 -13 10 -13 6 0 10 -7 10 -15 0 -14 9 -37 62 -155 11 -25 24
-54 28 -65 4 -11 18 -42 30 -70 12 -27 26 -59 30 -70 4 -11 18 -42 30 -70 12
-27 26 -59 30 -70 15 -40 28 -71 60 -140 43 -93 71 -156 80 -180 4 -11 17 -40
29 -63 11 -24 21 -50 21 -58 0 -8 4 -22 9 -32 5 -9 41 -84 81 -167 40 -82 94
-195 121 -250 27 -55 49 -106 49 -112 0 -7 5 -13 10 -13 6 0 10 -7 10 -15 0
-8 9 -30 20 -50 11 -20 20 -42 20 -50 0 -8 4 -15 8 -15 4 0 36 -57 71 -127 34
-71 66 -135 71 -143 5 -8 28 -53 50 -100 23 -47 45 -92 50 -100 19 -31 80
-160 80 -169 0 -5 3 -11 8 -13 10 -4 52 -87 52 -103 0 -7 3 -15 8 -17 4 -1 32
-52 62 -113 30 -60 58 -111 62 -113 5 -2 8 -12 8 -23 0 -10 5 -19 10 -19 6 0
10 -9 10 -20 0 -11 5 -20 10 -20 6 0 10 -9 10 -20 0 -11 5 -20 10 -20 6 0 10
-9 10 -19 0 -11 3 -21 8 -23 4 -1 23 -34 42 -73 19 -38 38 -71 42 -73 5 -2 8
-12 8 -23 0 -10 5 -19 10 -19 6 0 10 -9 10 -20 0 -11 5 -20 10 -20 6 0 10 -9
10 -20 0 -11 5 -20 10 -20 6 0 10 -8 10 -17 0 -10 9 -29 20 -43 11 -14 20 -31
20 -37 0 -7 5 -13 10 -13 6 0 10 -6 10 -13 0 -18 24 -67 33 -67 4 0 7 -9 7
-20 0 -11 5 -20 10 -20 6 0 10 -9 10 -20 0 -11 3 -20 8 -20 4 0 18 -25 32 -55
14 -30 28 -55 33 -55 4 0 7 -7 7 -15 0 -15 19 -55 31 -65 3 -3 12 -20 20 -37
8 -18 17 -33 21 -33 5 0 8 -6 8 -13 0 -18 24 -67 33 -67 4 0 7 -7 7 -16 0 -9
8 -28 18 -42 10 -15 29 -49 42 -77 14 -27 28 -51 33 -53 4 -2 7 -12 7 -22 0
-10 3 -20 8 -22 4 -1 23 -34 42 -73 19 -38 38 -71 42 -73 5 -2 8 -12 8 -22 0
-10 3 -20 8 -22 6 -3 29 -44 92 -168 13 -25 28 -56 34 -70 6 -14 13 -27 16
-30 3 -3 26 -45 50 -95 25 -49 48 -91 52 -93 5 -2 8 -12 8 -23 0 -10 4 -19 8
-19 5 0 14 -16 22 -35 8 -19 16 -35 20 -35 3 0 16 -25 29 -55 13 -30 28 -55
32 -55 5 0 9 -7 9 -16 0 -9 9 -29 21 -46 12 -16 18 -32 15 -36 -4 -3 -10 -2
-14 3 -4 6 -29 21 -57 35 -27 13 -62 32 -77 42 -14 10 -33 18 -42 18 -9 0 -16
5 -16 10 0 6 -6 10 -14 10 -8 0 -34 10 -58 21 -23 12 -54 26 -68 32 -14 5 -33
13 -42 18 -10 5 -27 9 -38 9 -11 0 -20 5 -20 10 0 6 -7 10 -15 10 -24 0 -95
24 -95 32 0 5 -11 8 -25 8 -14 0 -33 4 -43 9 -30 15 -149 51 -170 51 -12 0
-24 5 -27 10 -3 6 -17 10 -30 10 -13 0 -27 5 -30 10 -7 12 -42 13 -49 2 -2 -4
30 -25 72 -47 106 -54 229 -125 301 -174 33 -23 63 -41 66 -41 4 0 27 -15 52
-32 25 -18 56 -40 68 -48 97 -65 171 -119 200 -147 8 -7 19 -13 25 -13 7 0 10
-7 7 -14 -4 -10 -1 -13 9 -9 7 3 14 1 14 -4 0 -4 18 -19 40 -33 27 -17 38 -30
35 -41 -3 -9 1 -22 10 -29 10 -8 15 -9 15 -1 0 22 21 9 102 -63 15 -14 37 -30
49 -37 44 -23 100 -83 96 -101 -6 -22 15 -40 37 -32 10 4 16 1 16 -7 -1 -20
-25 -49 -40 -49 -14 0 -5 -14 11 -16 5 -1 12 -2 15 -3 10 -2 -17 -31 -39 -43
-11 -5 -17 -6 -14 -1 7 10 -13 37 -33 45 -11 4 -15 -2 -15 -21 0 -14 -4 -27
-10 -28 -15 -3 -9 58 7 68 10 7 10 9 -2 9 -8 0 -21 15 -29 33 -8 17 -19 35
-25 39 -18 12 -26 -2 -14 -27 9 -19 8 -35 -2 -65 -17 -50 -30 -51 -31 -2 0 33
-1 34 -10 14 -11 -28 -29 -20 -29 14 0 15 6 24 15 24 8 0 15 2 15 4 0 2 3 12
6 20 5 12 2 15 -10 10 -10 -4 -16 -1 -17 7 -4 51 -9 72 -20 85 -7 9 -8 14 -1
14 6 0 12 -5 14 -12 3 -7 14 -9 33 -4 l29 7 -24 12 c-13 7 -27 23 -30 36 -6
27 -35 50 -47 37 -4 -5 -2 -11 5 -13 27 -10 -8 -32 -40 -26 -22 4 -29 2 -28
-8 5 -31 -1 -49 -15 -49 -18 0 -20 -37 -2 -43 6 -2 17 3 24 12 10 13 12 10 13
-22 0 -24 -4 -36 -10 -32 -6 4 -29 4 -51 0 -34 -6 -40 -10 -37 -28 2 -17 11
-23 36 -25 19 -2 32 -9 32 -17 0 -21 -19 -29 -26 -11 -8 20 -33 21 -40 2 -7
-18 -34 -9 -34 11 0 8 -4 12 -9 8 -5 -3 -12 -1 -16 4 -9 16 -35 1 -35 -20 0
-10 -7 -19 -15 -19 -8 0 -15 -2 -15 -4 0 -2 -3 -11 -6 -20 -3 -9 -1 -16 6 -16
6 0 8 5 5 11 -4 6 2 5 14 -3 12 -7 21 -16 21 -19 0 -3 14 -20 30 -37 17 -18
30 -37 29 -44 0 -10 -2 -10 -6 0 -2 6 -11 12 -19 12 -8 0 -14 4 -14 9 0 6 -9
9 -19 8 -11 0 -19 -4 -19 -7 2 -18 -3 -30 -12 -30 -12 0 -9 38 4 58 13 21 -1
26 -20 7 -15 -14 -15 -18 -3 -27 10 -7 6 -8 -13 -4 -21 5 -30 1 -39 -16 -7
-13 -13 -25 -13 -28 -1 -3 -4 -4 -8 -3 -9 3 -21 -37 -14 -45 8 -7 31 15 31 30
0 15 33 34 42 24 4 -5 2 -11 -4 -13 -7 -3 -13 -15 -13 -28 0 -49 -30 -76 -44
-40 -3 8 -14 15 -25 15 -28 0 -36 18 -20 46 7 13 10 27 6 30 -7 8 -37 -20 -37
-35 0 -6 -4 -11 -10 -11 -14 0 -13 13 2 28 17 17 0 28 -23 14 -11 -7 -24 -10
-29 -7 -15 9 -12 -8 7 -35 20 -28 24 -70 7 -70 -7 0 -34 11 -59 24 -42 21 -45
24 -31 39 22 22 20 47 -3 47 -11 0 -23 -4 -26 -10 -3 -5 1 -10 9 -10 25 0 18
-19 -9 -26 -15 -4 -41 2 -67 14 -65 30 -200 83 -225 89 -27 6 -30 18 -8 27 9
3 18 -1 21 -9 4 -8 10 -15 15 -15 16 0 10 30 -10 51 -17 18 -19 18 -25 3 -4
-9 -12 -14 -22 -10 -8 3 -12 2 -9 -3 3 -5 1 -12 -5 -16 -9 -6 -56 9 -145 46
-16 6 -37 13 -45 15 -8 1 -53 16 -100 33 -47 17 -91 29 -97 26 -7 -2 -13 0
-13 5 0 6 -7 10 -16 10 -8 0 -25 5 -37 12 -12 6 -35 13 -51 15 -16 2 -34 7
-40 12 -6 4 -39 14 -73 22 -46 9 -60 16 -52 25 7 9 -1 10 -33 7 -24 -3 -70 3
-103 12 -33 9 -69 18 -80 20 -11 1 -21 3 -22 4 0 0 5 25 13 54 7 28 14 69 14
89 0 20 4 39 8 42 12 7 14 369 2 446 -33 217 -53 297 -91 372 -5 10 -9 29 -9
43 0 14 -4 25 -10 25 -5 0 -10 11 -10 24 0 14 -4 28 -10 31 -5 3 -10 15 -10
26 0 10 -4 19 -10 19 -5 0 -10 6 -10 13 0 18 -24 67 -32 67 -5 0 -8 8 -8 18 0
10 -8 27 -19 38 -18 20 -37 62 -33 76 1 4 -5 5 -13 2 -9 -4 -15 0 -15 9 0 8
-18 33 -40 56 -23 23 -38 47 -34 53 4 6 3 8 -4 4 -6 -3 -32 15 -59 41 -26 27
-60 54 -75 62 -16 8 -28 18 -28 22 0 10 -87 49 -110 49 -10 0 -20 5 -22 10 -2
6 -28 12 -58 13 -30 1 -61 6 -69 11 -20 13 -73 13 -78 1 -2 -6 -21 -11 -42
-12 -21 -1 -55 -11 -75 -22 -20 -12 -44 -21 -54 -21 -9 -1 -33 -14 -52 -30
-19 -17 -38 -30 -43 -30 -13 0 -166 -160 -172 -181 -4 -11 -11 -19 -16 -19 -5
0 -9 -7 -9 -15 0 -8 -4 -15 -10 -15 -5 0 -10 -6 -10 -14 0 -8 -4 -16 -8 -18
-11 -4 -112 -211 -112 -229 0 -8 -5 -20 -10 -25 -10 -10 -17 -31 -27 -86 -3
-15 -11 -33 -19 -39 -8 -6 -14 -26 -14 -45 0 -18 -4 -35 -8 -38 -5 -3 -14 -51
-21 -108 -7 -57 -15 -119 -19 -138 -11 -59 -7 -340 7 -430 7 -47 15 -103 18
-125 3 -22 10 -46 16 -53 14 -18 -3 -28 -62 -37 -25 -4 -57 -10 -71 -12 -93
-17 -100 -17 -100 11 0 20 5 26 21 26 18 0 19 -2 9 -15 -7 -8 -10 -15 -6 -15
10 0 50 24 58 35 4 6 8 6 8 2 0 -12 30 19 30 31 0 6 -9 8 -20 5 -11 -3 -20 -9
-20 -14 0 -5 -9 -9 -20 -9 -24 0 -25 6 -5 26 8 9 15 20 15 25 0 5 -7 9 -15 9
-22 0 -18 18 5 25 23 7 24 14 6 38 -12 15 -15 13 -26 -29 -7 -26 -13 -53 -13
-60 0 -8 -4 -14 -9 -14 -4 0 -8 5 -8 10 0 6 -4 10 -8 10 -5 0 -9 -14 -10 -31
0 -18 -6 -37 -11 -42 -6 -6 -11 -21 -11 -34 0 -15 -6 -24 -17 -25 -33 -2 -38
-3 -48 -10 -6 -3 -38 -13 -71 -22 -34 -9 -79 -23 -100 -33 -21 -9 -43 -16 -47
-15 -13 4 -167 -49 -167 -57 0 -4 -12 -8 -27 -9 -16 -1 -37 -6 -48 -11 -54
-23 -133 -51 -162 -57 -18 -4 -33 -10 -33 -15 0 -5 -7 -9 -15 -9 -8 0 -23 -4
-33 -10 -19 -10 -85 -39 -207 -90 -44 -18 -125 -55 -180 -80 -164 -78 -190
-88 -199 -83 -4 3 -4 8 0 12 16 11 35 52 29 61 -4 6 -13 10 -22 10 -10 0 -14
-6 -10 -20 3 -12 -2 -27 -11 -37 -16 -15 -17 -15 -20 2 -2 9 0 20 6 24 5 3 9
13 9 21 0 8 3 25 7 38 5 15 3 22 -5 22 -10 0 -10 3 -1 12 7 7 12 17 12 23 -1
18 -24 -29 -25 -51 -3 -41 -14 -54 -44 -54 -16 0 -36 7 -45 15 -16 17 -91 21
-101 5 -10 -17 -25 -11 -25 10 0 11 -4 20 -10 20 -5 0 -10 -9 -10 -20 0 -11 4
-20 9 -20 15 0 22 -32 10 -46 -6 -8 -9 -14 -5 -14 4 0 -1 -11 -10 -25 -8 -13
-13 -28 -10 -34 3 -5 -3 -7 -14 -4 -11 3 -20 12 -20 20 0 9 6 13 15 9 11 -4
15 1 15 17 -1 25 -22 57 -37 57 -16 0 -22 49 -7 60 9 8 15 6 23 -7 10 -17 10
-16 11 4 0 12 -9 28 -21 36 -20 14 -20 16 -4 41 10 14 13 26 7 26 -6 0 -12 -5
-14 -12 -3 -7 -24 -12 -52 -13 -44 0 -47 2 -41 23 3 12 1 22 -5 22 -5 0 -10 9
-10 19 0 11 -6 21 -12 24 -7 2 -10 8 -6 12 10 10 38 -13 49 -40 8 -20 8 -20
15 3 6 22 6 22 24 2 21 -25 30 -25 30 -2 0 10 5 23 11 29 12 12 18 83 7 83 -4
0 -15 13 -24 29 -10 16 -26 32 -36 35 -11 2 -19 12 -18 23 5 40 1 44 -26 27
-24 -16 -25 -16 -31 4 -3 12 -9 20 -13 17 -11 -7 -11 -85 1 -85 13 0 11 -27
-2 -36 -7 -4 -16 1 -21 10 -14 25 -36 19 -54 -16 -9 -18 -23 -38 -30 -46 -23
-23 -17 11 6 36 11 12 20 28 20 37 0 8 5 15 10 15 6 0 10 9 10 19 0 11 3 21 8
23 4 2 18 26 32 53 14 28 27 52 30 55 4 3 21 35 38 72 18 37 37 70 42 73 6 3
10 15 10 26 0 10 4 19 8 19 5 0 14 16 22 35 8 19 17 35 20 35 3 0 12 16 20 35
8 19 16 35 19 35 4 0 12 15 20 33 8 17 17 34 20 37 4 3 22 37 41 75 42 86 39
82 51 65 6 -10 7 -5 3 18 -6 31 9 47 19 20 2 -7 3 -3 1 9 -4 20 33 104 49 111
4 2 7 10 7 18 0 8 5 14 10 14 6 0 10 9 10 19 0 11 4 21 8 23 4 2 29 48 56 103
65 137 95 194 106 205 3 3 20 33 38 68 17 34 47 90 64 125 18 34 35 64 38 67
3 3 20 34 39 70 42 82 98 187 141 265 18 33 56 105 84 160 28 55 54 101 58
103 5 2 8 12 8 22 0 10 3 20 8 22 4 2 23 35 42 73 19 39 38 72 42 73 5 2 8 12
8 22 0 10 3 20 8 22 4 2 23 35 42 73 19 39 38 72 42 73 5 2 8 12 8 22 0 10 3
20 8 22 10 4 52 87 52 104 0 8 4 14 8 14 5 0 14 16 22 35 8 19 17 35 22 35 4
0 8 9 8 20 0 11 5 20 10 20 6 0 10 9 10 20 0 11 5 20 10 20 6 0 10 9 10 20 0
11 5 20 10 20 6 0 10 9 10 20 0 11 5 20 10 20 6 0 10 9 10 20 0 11 5 20 10 20
6 0 10 9 10 20 0 11 5 20 10 20 6 0 10 9 10 20 0 11 5 20 10 20 6 0 10 9 10
20 0 11 5 20 10 20 6 0 10 9 10 20 0 11 5 20 10 20 6 0 10 9 10 20 0 11 5 20
10 20 6 0 10 9 10 20 0 11 5 20 10 20 6 0 10 9 10 19 0 11 3 21 8 23 10 4 92
170 92 186 0 6 5 12 10 12 6 0 10 9 10 20 0 11 5 20 10 20 6 0 10 9 10 20 0
11 5 20 10 20 6 0 10 9 10 20 0 11 5 20 10 20 6 0 10 9 10 20 0 11 5 20 10 20
6 0 10 9 10 20 0 11 5 20 10 20 6 0 10 6 10 14 0 11 27 72 47 105 1 3 49 -34
136 -105 9 -8 22 -14 27 -14 6 0 10 -4 10 -10 0 -5 7 -10 15 -10 8 0 15 -4 15
-10 0 -5 7 -10 15 -10 8 0 15 -4 15 -10 0 -5 7 -10 15 -10 8 0 15 -4 15 -10 0
-5 7 -10 15 -10 8 0 15 -4 15 -10 0 -5 5 -10 11 -10 6 0 23 -8 37 -19 27 -19
73 -46 145 -84 20 -12 37 -24 37 -29 0 -4 9 -8 20 -8 11 0 20 -4 20 -10 0 -5
9 -10 21 -10 11 0 33 -8 47 -18 28 -18 64 -36 95 -46 10 -3 15 -10 12 -16 -3
-5 0 -8 7 -5 7 3 31 -4 53 -15 21 -11 47 -20 56 -20 10 0 19 -3 21 -7 5 -13
98 -57 104 -50 8 8 -47 56 -63 57 -7 0 -13 5 -13 10 0 6 -10 14 -22 19 -35 14
-108 81 -108 99 0 14 -2 14 -9 3 -7 -11 -14 -9 -37 13 -16 14 -32 26 -35 26
-4 0 -22 14 -40 31 -19 18 -50 43 -69 58 -19 14 -42 34 -51 43 -9 10 -22 18
-29 18 -7 0 -11 3 -8 6 4 3 -12 22 -35 42 -100 89 -122 109 -161 150 -23 24
-54 57 -69 73 -16 16 -25 33 -22 39 4 6 1 9 -7 8 -7 -2 -12 3 -10 10 1 6 -4
11 -10 10 -7 -2 -12 3 -10 10 1 6 -4 11 -10 10 -7 -2 -11 4 -10 12 2 8 0 12
-4 8 -10 -11 -34 11 -33 31 0 12 2 12 10 -4 8 -18 9 -18 8 5 -2 43 1 51 13 44
6 -4 8 -3 5 4 -10 15 3 43 16 35 6 -3 7 -1 3 6 -9 14 24 92 36 85 5 -4 9 0 7
7 -3 27 1 40 12 33 8 -4 9 0 4 15 -4 14 -2 23 9 27 8 3 12 12 10 19 -3 7 -1
16 5 20 6 3 11 15 11 26 0 10 5 19 10 19 6 0 10 9 10 19 0 11 5 23 10 26 6 3
10 15 10 26 0 10 5 19 10 19 6 0 10 7 10 15 0 8 9 30 20 50 11 20 20 42 20 50
0 8 5 15 10 15 6 0 10 7 10 15 0 8 4 23 9 33 9 18 28 62 42 100 5 12 13 32 18
45 5 12 19 45 31 72 12 28 26 59 30 70 11 31 31 78 41 97 5 10 9 25 9 33 0 8
5 15 10 15 6 0 10 11 10 25 0 14 5 25 10 25 6 0 10 7 10 15 0 8 8 29 18 47 9
18 23 51 30 73 7 22 17 49 21 60 5 11 13 31 18 45 6 14 20 45 32 68 11 24 21
50 21 58 0 8 4 22 9 32 5 9 17 34 26 56 13 28 19 35 26 25 4 -7 11 -10 15 -6
4 3 1 13 -6 22 -10 12 -8 23 9 60 11 25 21 51 21 58 0 18 28 75 41 82 5 4 9
14 9 23 1 9 7 31 16 47 l14 30 -4 -46 c-4 -36 -1 -49 15 -62 24 -21 29 -21 29
-2 0 8 -4 15 -10 15 -5 0 -10 7 -10 15 0 8 5 15 10 15 15 0 12 40 -4 46 -19 7
-28 32 -20 56 8 28 13 20 78 -132z m2526 -5450 c0 -5 -4 -10 -10 -10 -5 0 -10
5 -10 10 0 6 5 10 10 10 6 0 10 -4 10 -10z m-20 -142 c-1 -26 -3 -30 -10 -16
-6 9 -7 23 -4 32 9 25 14 19 14 -16z m300 -93 c0 -8 -4 -15 -8 -15 -5 0 -9 7
-9 15 0 8 4 15 9 15 4 0 8 -7 8 -15z m-5633 -17 c-3 -8 -6 -5 -6 6 -1 11 2 17
5 13 3 -3 4 -12 1 -19z m37 -82 c-6 -27 -24 -31 -32 -8 -2 7 3 12 12 12 9 0
16 8 16 17 0 9 2 14 5 11 4 -3 3 -18 -1 -32z m52 -16 c-3 -38 -8 -43 -32 -26
-18 14 -18 15 6 35 14 11 26 20 27 21 0 0 0 -13 -1 -30z m5080 3 c23 -21 54
-26 54 -9 0 7 7 13 16 13 10 0 14 -8 12 -26 -3 -23 -7 -26 -38 -23 -19 2 -36
8 -38 13 -2 5 -12 9 -23 9 -12 0 -19 7 -19 20 0 25 10 25 36 3z m533 -7 c10
-18 10 -29 2 -45 -7 -12 -9 -26 -6 -31 3 -6 1 -10 -6 -10 -8 0 -10 12 -5 39 3
23 2 42 -4 46 -12 7 -13 25 -2 25 5 0 14 -11 21 -24z m-5695 -36 c-8 -8 -16
-4 -27 13 -9 14 -13 28 -10 31 4 4 16 -3 27 -14 14 -14 17 -23 10 -30z m5646
18 c0 -19 -2 -20 -10 -8 -13 19 -13 30 0 30 6 0 10 -10 10 -22z m-254 -46
c-10 -11 -16 -12 -16 -4 0 7 5 12 10 12 6 0 9 3 9 8 -3 16 3 26 8 14 3 -8 -2
-21 -11 -30z m-5561 -20 c-3 -3 -10 0 -14 7 -6 9 -11 10 -15 2 -4 -6 4 -22 17
-35 14 -14 22 -27 19 -30 -3 -3 0 -6 5 -6 16 0 11 -21 -14 -56 -13 -17 -19
-35 -15 -39 4 -4 -3 -5 -16 -2 -12 3 -20 1 -16 -4 9 -15 -23 -10 -36 5 -6 8
-18 12 -26 9 -16 -6 -19 12 -4 22 6 3 10 15 10 26 0 10 5 19 10 19 6 0 10 7
10 15 0 8 5 15 10 15 6 0 10 7 10 15 0 15 17 49 35 71 7 8 13 7 23 -8 8 -11
11 -22 7 -26z m5725 28 c0 -19 -11 -26 -23 -14 -8 8 3 34 14 34 5 0 9 -9 9
-20z m60 16 c0 -11 -19 -15 -25 -6 -3 5 1 10 9 10 9 0 16 -2 16 -4z m138 -64
c6 -12 12 -29 12 -37 0 -8 5 -15 10 -15 6 0 10 -7 10 -15 0 -8 -9 -15 -20 -15
-16 0 -20 7 -20 35 0 19 -4 35 -10 35 -5 0 -10 9 -10 21 0 11 -4 17 -10 14 -6
-3 -7 1 -4 9 7 17 19 8 42 -32z m-276 -14 c-8 -8 -9 -4 -5 13 4 13 8 18 11 10
2 -7 -1 -18 -6 -23z m-5541 5 c1 -10 1 -21 0 -25 0 -5 3 -8 9 -8 5 0 14 -9 20
-20 9 -17 8 -20 -10 -20 -11 0 -20 7 -20 15 0 9 -7 29 -15 45 -14 27 -14 30 0
30 8 0 16 -8 16 -17z m5749 -18 c14 -17 4 -39 -16 -31 -10 4 -14 -2 -14 -18 0
-20 4 -23 21 -19 18 5 20 3 15 -14 -4 -12 1 -28 13 -42 14 -16 18 -31 14 -52
-3 -18 -1 -29 6 -29 6 0 11 -9 11 -20 0 -24 -13 -25 -45 -4 -14 9 -21 22 -18
30 3 8 0 14 -6 14 -6 0 -11 17 -11 39 0 22 -5 43 -10 46 -6 4 -8 10 -6 14 3 4
-8 5 -25 3 -17 -3 -29 0 -29 7 0 6 4 11 9 11 6 0 11 15 13 33 2 27 7 31 26 29
12 -2 22 2 22 7 0 16 15 13 30 -4z m-609 -38 c-8 -8 -11 -7 -11 4 0 20 13 34
18 19 3 -7 -1 -17 -7 -23z m137 21 c14 -14 16 -48 3 -48 -5 0 -11 10 -13 23
-2 12 -9 21 -16 20 -6 -2 -12 2 -12 7 0 14 23 13 38 -2z m229 -10 c-3 -8 -6
-5 -6 6 -1 11 2 17 5 13 3 -3 4 -12 1 -19z m74 -11 c-16 -16 -25 -1 -10 16 8
8 16 11 18 5 2 -5 -2 -15 -8 -21z m79 25 c0 -4 -9 -13 -20 -20 -23 -14 -26 -8
-7 13 13 16 27 19 27 7z m-5544 -58 c-3 -8 -10 -13 -15 -9 -6 3 -14 -3 -20
-12 -6 -10 -11 -13 -11 -7 0 6 9 21 20 34 11 13 21 28 21 34 1 6 3 3 6 -7 3
-10 2 -25 -1 -33z m5104 36 c0 -5 -7 -10 -15 -10 -8 0 -15 5 -15 10 0 6 7 10
15 10 8 0 15 -4 15 -10z m-5260 -35 c0 -19 -5 -25 -17 -23 -37 6 -30 30 15 47
1 1 2 -10 2 -24z m5054 -17 c-1 -13 -3 -26 -3 -30 -1 -12 -29 -9 -37 4 -4 6
-2 14 4 16 7 2 12 10 12 18 0 8 6 14 13 14 8 0 13 -9 11 -22z m776 12 c0 -5
-4 -10 -10 -10 -5 0 -10 5 -10 10 0 6 5 10 10 10 6 0 10 -4 10 -10z m80 -5 c0
-8 5 -15 10 -15 6 0 10 -7 10 -17 0 -14 -2 -14 -20 2 -21 19 -27 45 -10 45 6
0 10 -7 10 -15z m-50 -20 c0 -8 5 -15 10 -15 6 0 10 -7 10 -15 0 -20 -10 -19
-26 3 -16 20 -18 42 -4 42 6 0 10 -7 10 -15z m-6048 -46 c14 -9 -9 -59 -27
-59 -22 0 -45 -24 -45 -46 0 -12 -3 -15 -10 -8 -12 12 -3 44 11 44 5 0 9 7 9
15 0 8 5 15 10 15 6 0 10 10 10 21 0 18 2 20 16 8 13 -11 15 -9 10 17 -4 16
-3 22 0 14 4 -8 11 -18 16 -21z m278 21 c0 -5 -4 -10 -10 -10 -5 0 -10 5 -10
10 0 6 5 10 10 10 6 0 10 -4 10 -10z m270 -9 c13 -26 13 -31 -5 -31 -24 0 -17
-18 8 -22 18 -2 21 -8 19 -30 -3 -22 1 -28 15 -28 13 0 9 -5 -12 -16 -56 -30
-75 -35 -68 -18 3 8 0 20 -6 28 -6 7 -9 21 -5 30 4 11 1 16 -10 16 -18 0 -19
2 -10 24 3 9 13 16 21 16 10 0 14 7 10 20 -4 17 4 27 25 29 4 1 12 -8 18 -18z
m5110 3 c0 -8 -5 -12 -10 -9 -6 4 -8 11 -5 16 9 14 15 11 15 -7z m-5626 -9
c-4 -8 -10 -12 -15 -9 -14 8 -10 24 6 24 9 0 12 -6 9 -15z m5243 9 c-3 -3 -12
-4 -19 -1 -8 3 -5 6 6 6 11 1 17 -2 13 -5z m613 -27 c0 -5 -4 -5 -10 -2 -5 3
-10 14 -10 23 0 15 2 15 10 2 5 -8 10 -19 10 -23z m-490 16 c0 -5 11 -21 25
-37 40 -47 29 -61 -22 -28 -22 13 -27 23 -25 45 3 23 22 41 22 20z m101 -26
c-8 -8 -14 -8 -23 1 -9 9 -8 12 5 12 9 0 17 6 18 13 0 9 2 8 6 -1 3 -8 0 -19
-6 -25z m649 -2 c8 -19 17 -35 22 -35 16 0 7 -40 -12 -52 -21 -13 -27 -43 -11
-53 6 -3 17 11 27 30 l17 36 26 -52 c16 -33 22 -53 15 -56 -6 -2 -9 -15 -6
-29 4 -23 3 -24 -23 -14 -20 8 -31 7 -42 -1 -9 -8 -17 -9 -24 -2 -7 7 -1 17
20 32 33 24 40 41 16 41 -8 0 -15 -5 -15 -11 0 -12 -20 8 -37 38 -10 17 -9 22
2 27 8 3 12 12 9 21 -5 11 -2 14 11 9 13 -5 16 -2 13 12 -2 11 -13 20 -26 22
-12 2 -22 8 -22 13 0 5 -6 9 -14 9 -8 0 -17 7 -20 16 -9 24 -8 26 13 19 11 -3
22 -1 26 5 11 18 21 11 35 -25z m-6040 17 c0 -5 -12 -14 -26 -20 -19 -9 -24
-17 -19 -32 8 -25 -20 -28 -29 -3 -8 19 23 52 43 45 8 -3 11 0 7 7 -4 6 -1 11
8 11 9 0 16 -4 16 -8z m503 -24 c-3 -18 -7 -34 -8 -35 -1 -2 -9 13 -18 32
l-17 35 25 0 c22 0 24 -3 18 -32z m5452 13 c3 -5 1 -12 -5 -16 -5 -3 -10 1
-10 9 0 18 6 21 15 7z m-702 -8 c-7 -2 -19 -2 -25 0 -7 3 -2 5 12 5 14 0 19
-2 13 -5z m567 -20 c0 -5 -4 -15 -10 -23 -11 -18 -25 -7 -17 15 6 15 27 21 27
8z m-5243 -19 c-3 -3 -12 -4 -19 -1 -8 3 -5 6 6 6 11 1 17 -2 13 -5z m4869
-20 c-3 -9 -6 -18 -6 -20 0 -10 -58 -2 -76 11 -17 13 -17 14 -1 15 9 0 17 -4
17 -10 0 -5 11 -10 25 -10 14 0 24 3 24 8 -3 15 1 22 12 22 6 0 8 -7 5 -16z
m560 4 c1 -2 -4 -12 -12 -22 -10 -14 -17 -16 -26 -8 -7 6 -17 10 -23 10 -18 1
-16 20 2 24 17 4 53 2 59 -4z m-6128 -10 c8 -8 15 -8 27 2 20 17 19 3 -1 -18
-15 -14 -17 -14 -26 1 -5 10 -13 15 -19 12 -5 -4 -9 -1 -9 4 0 14 13 14 28 -1z
m392 -2 c6 -8 10 -25 8 -38 -4 -22 -5 -22 -12 -3 -4 11 -12 28 -17 38 -11 21
4 23 21 3z m5400 4 c0 -5 -7 -10 -16 -10 -8 0 -12 5 -9 10 3 6 10 10 16 10 5
0 9 -4 9 -10z m140 -20 c0 -5 -7 -10 -15 -10 -8 0 -15 5 -15 10 0 6 7 10 15
10 8 0 15 -4 15 -10z m-5990 -59 c0 -9 -4 -22 -9 -30 -6 -9 -3 -21 10 -34 23
-25 25 -73 3 -85 -21 -12 -10 -32 17 -32 10 0 19 -7 19 -15 0 -18 -14 -19 -41
-5 -15 8 -19 7 -19 -4 0 -8 5 -18 11 -22 6 -3 8 -16 5 -28 l-5 -21 17 21 c11
12 30 21 49 22 31 1 31 0 12 -19 -10 -10 -26 -19 -34 -19 -8 0 -15 -4 -15 -8
0 -5 -16 -14 -35 -22 -19 -8 -35 -17 -35 -22 0 -4 -7 -8 -16 -8 -10 0 -14 6
-11 14 3 7 0 19 -6 25 -9 9 -8 14 3 22 13 8 13 11 -2 20 -20 11 -23 41 -7 71
9 16 7 24 -5 37 -15 14 -18 14 -26 1 -8 -13 -10 -13 -10 1 0 9 6 22 14 28 12
10 17 8 26 -9 6 -11 15 -18 21 -15 5 4 9 1 9 -4 0 -6 9 -11 20 -11 13 0 20 7
20 19 0 11 5 21 11 23 6 2 9 13 7 23 -5 20 -5 20 -13 0 -12 -29 -33 -47 -40
-36 -3 5 -1 12 5 16 5 3 10 13 10 21 0 17 -36 19 -43 2 -4 -8 -6 -7 -6 3 -1 9
6 30 14 45 8 16 15 23 15 17 0 -7 5 -13 11 -13 6 0 8 8 4 20 -3 10 -1 29 6 41
11 22 12 22 25 4 8 -10 14 -26 14 -34z m5667 27 c-3 -8 -6 -5 -6 6 -1 11 2 17
5 13 3 -3 4 -12 1 -19z m61 -10 c-2 -6 -10 -14 -16 -16 -7 -2 -10 2 -6 12 7
18 28 22 22 4z m127 2 c3 -5 1 -10 -4 -10 -6 0 -11 5 -11 10 0 6 2 10 4 10 3
0 8 -4 11 -10z m240 0 c3 -5 1 -10 -4 -10 -6 0 -11 5 -11 10 0 6 2 10 4 10 3
0 8 -4 11 -10z m-5942 -51 c-15 -15 -32 -3 -28 19 2 9 4 19 4 22 1 2 9 -3 18
-13 13 -12 14 -20 6 -28z m5597 11 c0 -5 -2 -10 -4 -10 -3 0 -8 5 -11 10 -3 6
-1 10 4 10 6 0 11 -4 11 -10z m58 -30 c-2 -6 -8 -6 -18 0 -13 9 -13 11 0 20
15 10 25 0 18 -20z m322 9 c0 -5 -7 -9 -15 -9 -15 0 -20 12 -9 23 8 8 24 -1
24 -14z m-6070 7 c0 -3 -4 -8 -10 -11 -5 -3 -10 -1 -10 4 0 6 5 11 10 11 6 0
10 -2 10 -4z m380 -11 c-7 -8 -17 -15 -22 -15 -11 0 14 29 26 30 5 0 3 -7 -4
-15z m-240 -13 c0 -12 -3 -12 -15 -2 -10 9 -15 9 -15 1 0 -6 -7 -11 -15 -11
-18 0 -20 17 -2 23 23 9 47 3 47 -11z m6130 -2 c0 -11 -4 -20 -10 -20 -5 0
-10 9 -10 20 0 11 5 20 10 20 6 0 10 -9 10 -20z m-220 -24 c-1 -21 -1 -21 -15
-2 -19 25 -19 37 0 30 8 -4 15 -16 15 -28z m42 -1 c-2 -14 -10 -25 -17 -25
-10 0 -11 6 -2 29 13 35 26 32 19 -4z m-6040 -7 c-7 -7 -12 -8 -12 -2 0 14 12
26 19 19 2 -3 -1 -11 -7 -17z m278 18 c0 -3 -4 -8 -10 -11 -5 -3 -10 -1 -10 4
0 6 5 11 10 11 6 0 10 -2 10 -4z m5964 -38 c-3 -4 0 -8 5 -8 6 0 11 -6 11 -12
0 -20 -18 -43 -27 -35 -4 5 -1 12 7 17 12 7 11 12 -4 29 -10 11 -15 25 -11 31
6 9 10 9 16 -1 4 -7 5 -17 3 -21z m-120 -17 c2 8 6 21 9 29 4 12 6 12 12 -3
12 -28 -17 -52 -43 -38 -14 7 -23 8 -27 1 -3 -5 -13 -10 -22 -10 -15 0 -14 2
0 18 10 10 17 25 17 33 0 8 10 2 25 -15 17 -20 26 -25 29 -15z m-6177 7 c-3
-8 -6 -5 -6 6 -1 11 2 17 5 13 3 -3 4 -12 1 -19z m5930 -10 c-3 -8 -6 -5 -6 6
-1 11 2 17 5 13 3 -3 4 -12 1 -19z m333 -10 c0 -4 -7 -16 -16 -27 -13 -15 -20
-16 -30 -8 -10 10 -8 15 9 29 12 10 16 18 10 18 -7 0 -13 5 -13 10 0 6 8 5 20
-2 11 -7 20 -16 20 -20z m-180 -8 c9 -16 8 -20 -5 -20 -8 0 -15 9 -15 20 0 11
2 20 5 20 2 0 9 -9 15 -20z m-110 -10 c0 -5 -4 -10 -10 -10 -5 0 -10 5 -10 10
0 6 5 10 10 10 6 0 10 -4 10 -10z m-5850 -25 c-7 -8 -20 -14 -29 -14 -13 1
-13 2 2 6 9 2 17 9 17 14 0 5 5 9 11 9 8 0 8 -5 -1 -15z m5920 -15 c0 -5 -2
-10 -4 -10 -3 0 -8 5 -11 10 -3 6 -1 10 4 10 6 0 11 -4 11 -10z m149 -29 c-6
-2 -15 3 -20 10 -15 24 -10 29 11 11 12 -10 16 -18 9 -21z m-6412 7 c-3 -8 -6
-5 -6 6 -1 11 2 17 5 13 3 -3 4 -12 1 -19z m6470 0 c-3 -8 -6 -5 -6 6 -1 11 2
17 5 13 3 -3 4 -12 1 -19z m-123 -23 c11 -8 18 -17 15 -19 -2 -3 -15 4 -29 14
-14 11 -20 20 -15 19 6 0 19 -6 29 -14z m54 -33 c6 -18 -15 -14 -22 4 -4 10
-1 14 6 12 6 -2 14 -10 16 -16z m-6375 1 c4 -3 -2 -13 -14 -21 -11 -8 -23 -11
-26 -8 -4 3 -1 6 5 6 7 0 12 7 12 15 0 16 12 20 23 8z m41 -49 c9 -22 8 -24
-9 -24 -8 0 -15 -4 -15 -10 0 -5 -7 -10 -15 -10 -8 0 -15 5 -15 10 0 6 4 10 9
10 5 0 11 9 14 20 6 24 22 26 31 4z m6603 -76 c-3 -8 -6 -5 -6 6 -1 11 2 17 5
13 3 -3 4 -12 1 -19z m-6707 2 c0 -5 -4 -10 -10 -10 -5 0 -10 5 -10 10 0 6 5
10 10 10 6 0 10 -4 10 -10z m-30 -20 c0 -5 -7 -10 -15 -10 -8 0 -15 5 -15 10
0 6 7 10 15 10 8 0 15 -4 15 -10z m-40 -21 c0 -6 -4 -7 -10 -4 -5 3 -10 11
-10 16 0 6 5 7 10 4 6 -3 10 -11 10 -16z m6800 6 c0 -8 -7 -15 -15 -15 -26 0
-18 20 13 29 1 1 2 -6 2 -14z m-3688 -1111 c70 -36 60 -134 -13 -134 -42 0
-62 26 -55 72 6 34 4 38 -18 44 -33 8 -88 -11 -113 -39 -32 -35 -43 -62 -50
-127 l-6 -60 152 0 151 0 0 -196 c0 -115 4 -203 10 -215 7 -12 21 -19 40 -19
23 0 30 -4 30 -20 0 -19 -7 -20 -126 -20 -114 0 -125 2 -122 18 2 11 15 19 38
22 l35 5 0 185 0 185 -103 3 -102 3 2 -188 3 -188 38 -3 c29 -3 37 -7 37 -23
0 -18 -8 -19 -125 -19 -118 0 -125 1 -125 20 0 16 7 20 34 20 22 0 36 6 40 16
3 9 6 94 6 189 l0 174 -47 3 c-40 3 -48 6 -48 23 0 17 8 20 48 23 l47 3 0 37
c0 84 36 149 105 192 65 40 174 46 237 14z m3378 -314 c0 -325 1 -340 19 -350
11 -5 29 -10 40 -10 14 0 21 -6 21 -20 0 -18 -7 -20 -62 -20 -35 0 -73 -3 -85
-6 -21 -6 -23 -3 -23 32 l0 38 -35 -34 c-30 -29 -43 -34 -93 -38 -46 -3 -68 0
-100 17 -106 54 -144 228 -78 359 57 112 186 146 271 70 l35 -30 0 123 c0 68
-4 129 -8 136 -4 6 -28 13 -52 15 -37 2 -45 6 -45 23 0 18 9 21 85 26 47 3 91
6 98 7 9 2 12 -72 12 -338z m2240 10 c0 -317 1 -331 20 -350 11 -11 29 -20 40
-20 13 0 20 -7 20 -20 0 -18 -7 -20 -62 -20 -35 0 -73 -3 -85 -6 -21 -6 -23
-3 -23 32 -1 36 -2 38 -15 20 -28 -37 -69 -56 -118 -56 -121 0 -199 94 -199
240 0 107 48 197 126 234 64 30 151 11 193 -43 10 -13 12 9 10 119 l-2 135
-47 3 c-43 3 -48 6 -48 27 0 23 3 24 88 28 48 1 90 4 95 5 4 1 7 -146 7 -328z
m-11240 231 c0 -43 3 -99 6 -125 7 -46 6 -48 -16 -44 -18 2 -25 13 -34 49 -31
119 -78 151 -228 153 -78 1 -101 -2 -108 -14 -5 -8 -10 -71 -10 -139 l0 -123
55 4 c66 6 92 26 107 85 7 32 15 43 29 43 18 0 19 -10 19 -160 0 -151 -1 -160
-19 -160 -15 0 -21 10 -26 41 -11 64 -41 91 -108 97 l-57 4 0 -139 c0 -95 4
-143 12 -151 8 -8 48 -12 112 -12 154 0 196 28 237 159 12 42 21 56 35 56 14
0 19 -7 18 -25 -1 -14 -5 -73 -9 -132 l-7 -108 -304 0 -304 0 0 24 c0 23 5 25
48 28 l47 3 3 303 c2 237 0 303 -10 306 -7 3 -30 7 -50 11 -29 4 -38 11 -38
25 0 19 9 20 300 20 l300 0 0 -79z m730 -76 l0 -94 73 -3 c66 -3 72 -5 75 -25
3 -22 0 -23 -72 -23 l-76 0 0 -163 c0 -187 6 -207 65 -207 41 0 61 24 71 88 5
32 11 42 25 42 15 0 19 -7 19 -35 0 -50 -22 -96 -59 -128 -26 -21 -43 -27 -81
-27 -116 0 -130 29 -130 259 l0 171 -40 0 c-33 0 -40 3 -40 20 0 13 9 22 25
26 42 10 83 67 97 134 9 47 16 60 30 60 16 0 18 -10 18 -95z m9340 0 l0 -94
73 -3 c64 -3 72 -5 72 -23 0 -18 -8 -20 -72 -23 l-73 -3 0 -162 c0 -131 3
-167 16 -185 18 -26 65 -30 88 -7 14 15 36 75 36 103 0 6 9 12 20 12 42 0 15
-115 -37 -160 -28 -25 -43 -30 -83 -30 -27 0 -61 5 -75 12 -48 22 -55 51 -55
243 l0 175 -40 0 c-53 0 -54 27 -3 55 44 23 78 80 88 142 5 34 10 43 26 43 17
0 19 -8 19 -95z m-3765 -95 c24 -26 13 -68 -20 -76 -27 -7 -55 10 -55 32 0 16
-26 19 -35 3 -4 -5 1 -26 10 -46 21 -44 16 -114 -12 -151 -38 -52 -66 -64
-164 -73 -52 -5 -104 -14 -116 -19 -25 -10 -31 -44 -10 -57 6 -4 76 -10 154
-13 137 -5 144 -6 169 -31 35 -35 42 -100 17 -149 -30 -57 -88 -82 -204 -88
-114 -5 -176 8 -214 46 -27 27 -33 68 -12 94 6 9 28 26 47 37 19 12 29 21 23
21 -51 0 -73 108 -30 147 12 11 31 23 42 27 20 7 20 8 1 22 -85 62 -73 202 22
257 50 29 157 34 203 10 36 -19 36 -19 65 4 37 29 94 31 119 3z m-5928 -9 c41
-19 42 -19 56 2 9 13 19 18 30 14 14 -5 17 -21 17 -87 0 -70 -2 -80 -18 -80
-11 0 -26 16 -40 45 -22 46 -78 85 -122 85 -35 0 -88 -27 -95 -49 -17 -54 16
-79 136 -106 42 -9 90 -25 108 -36 85 -51 73 -196 -19 -244 -41 -21 -126 -18
-179 5 l-44 20 -22 -20 c-39 -37 -45 -27 -45 75 0 84 2 95 18 95 11 0 26 -19
42 -52 32 -68 76 -98 142 -98 41 0 54 5 79 29 35 36 36 54 5 86 -22 22 -56 35
-175 65 -24 7 -57 24 -73 40 -56 56 -30 183 45 215 45 20 105 18 154 -4z m937
-6 c57 -27 66 -58 66 -225 0 -166 6 -185 56 -175 27 5 34 3 34 -9 0 -24 -49
-51 -93 -51 -38 0 -67 21 -80 58 -3 8 -12 5 -28 -10 -52 -47 -158 -68 -222
-44 -56 22 -86 85 -66 139 24 63 98 109 214 131 96 20 95 19 95 56 0 55 -17
85 -57 102 -42 17 -108 13 -129 -9 -11 -11 -12 -20 -2 -46 18 -46 2 -67 -48
-67 -33 0 -40 4 -48 27 -19 55 27 111 114 139 40 13 152 4 194 -16z m583 9
c19 -10 42 -29 51 -43 9 -14 17 -27 18 -29 1 -2 20 14 43 37 59 59 144 68 205
20 50 -39 56 -65 56 -232 0 -165 3 -177 52 -177 21 0 28 -5 28 -20 0 -19 -7
-20 -125 -20 -117 0 -125 1 -125 19 0 16 8 20 38 23 l37 3 0 162 c0 157 -1
162 -24 187 -49 52 -138 18 -161 -62 -6 -21 -10 -92 -8 -162 l3 -125 35 -5
c23 -3 36 -11 38 -22 3 -16 -8 -18 -122 -18 -119 0 -126 1 -126 20 0 15 7 20
28 20 15 0 33 5 40 12 15 15 16 247 2 300 -23 81 -111 92 -165 20 -18 -24 -20
-43 -20 -177 l0 -150 33 -3 c24 -2 32 -8 32 -23 0 -18 -8 -19 -126 -19 -114 0
-125 2 -122 18 2 11 15 19 38 22 l35 5 0 180 0 180 -38 3 c-33 3 -38 6 -35 25
3 20 9 22 91 25 l87 3 0 -33 0 -33 23 27 c46 57 118 73 184 42z m810 -5 c54
-26 96 -76 117 -141 20 -63 20 -100 0 -167 -28 -95 -109 -161 -198 -161 -131
0 -225 117 -214 264 14 169 160 270 295 205z m455 2 c36 -18 38 -18 54 0 35
38 44 25 44 -66 0 -99 -14 -111 -52 -43 -29 52 -64 78 -114 84 -54 7 -104 -24
-104 -64 0 -42 27 -61 121 -82 143 -33 179 -64 179 -152 0 -56 -28 -107 -71
-130 -46 -25 -133 -24 -184 2 l-39 20 -22 -21 c-42 -39 -54 -20 -54 81 0 88 1
90 24 90 18 0 25 -7 29 -29 7 -35 50 -87 88 -106 15 -8 49 -15 74 -15 56 0 95
32 95 79 0 40 -25 56 -141 87 -114 30 -149 58 -156 125 -12 119 117 198 229
140z m793 -1 c23 -11 48 -31 55 -45 17 -32 17 -79 0 -99 -15 -19 -71 -21 -88
-4 -16 16 -15 53 1 79 10 17 9 22 -7 35 -44 32 -109 3 -137 -60 -45 -102 -30
-238 32 -290 58 -49 152 -25 174 45 6 19 39 26 49 10 9 -14 -52 -100 -86 -121
-23 -14 -51 -20 -89 -20 -77 0 -135 32 -174 95 -28 45 -30 56 -30 139 0 74 4
99 22 131 59 110 177 154 278 105z m423 4 c47 -19 88 -58 115 -109 31 -58 31
-183 -1 -242 -43 -81 -106 -123 -186 -123 -57 0 -85 11 -130 51 -75 65 -102
169 -73 270 39 130 163 200 275 153z m610 -3 c67 -34 76 -64 82 -251 l5 -165
35 -5 c23 -3 36 -11 38 -22 3 -16 -8 -18 -122 -18 -119 0 -126 1 -126 20 0 16
7 20 30 20 19 0 33 7 40 19 12 24 13 221 0 276 -17 75 -82 105 -146 66 -48
-29 -65 -77 -71 -205 -7 -130 1 -156 47 -156 23 0 30 -4 30 -20 0 -19 -7 -20
-126 -20 -114 0 -125 2 -122 18 2 11 15 19 38 22 l35 5 0 180 0 180 -38 3
c-33 3 -38 6 -35 25 3 20 9 22 86 25 l82 3 0 -38 0 -37 38 36 c20 21 48 41 62
47 40 16 98 12 138 -8z m2341 2 c11 -10 24 -32 27 -50 8 -41 -33 -88 -69 -78
-32 10 -49 36 -43 68 7 34 -3 34 -38 2 -54 -50 -90 -181 -84 -300 l3 -60 45
-5 c32 -4 46 -10 48 -22 3 -16 -8 -18 -132 -18 -128 0 -136 1 -136 19 0 16 8
20 38 23 l37 3 0 180 0 180 -37 3 c-32 3 -38 7 -38 27 0 23 3 24 85 27 l85 3
0 -60 1 -60 16 30 c20 39 63 85 88 95 34 15 82 11 104 -7z m424 -12 c20 -12
40 -35 46 -53 6 -17 11 -94 11 -170 0 -164 6 -183 56 -173 27 5 34 3 34 -9 0
-24 -49 -51 -93 -51 -38 0 -67 21 -80 58 -3 8 -12 5 -28 -10 -38 -34 -93 -53
-156 -53 -163 0 -191 164 -41 241 21 11 68 26 105 34 38 9 78 18 91 20 17 4
22 12 22 40 0 55 -16 85 -57 102 -42 17 -108 13 -129 -9 -11 -11 -12 -20 -2
-46 14 -37 5 -60 -27 -72 -52 -19 -89 33 -65 90 25 61 97 91 206 86 52 -2 81
-9 107 -25z m597 8 c66 -37 74 -63 80 -249 l5 -165 35 -5 c23 -3 36 -11 38
-22 3 -16 -8 -18 -122 -18 -119 0 -126 1 -126 20 0 16 7 20 30 20 19 0 33 7
40 19 12 24 13 221 0 276 -17 75 -82 105 -146 66 -48 -29 -65 -77 -71 -205 -7
-130 1 -156 47 -156 23 0 30 -4 30 -20 0 -19 -7 -20 -126 -20 -114 0 -125 2
-122 18 2 11 15 19 38 22 l35 5 0 180 0 180 -38 3 c-33 3 -38 6 -35 25 3 20 9
22 86 25 l82 3 0 -38 0 -37 38 36 c20 21 48 41 62 47 42 16 100 12 140 -10z
m1078 2 c45 -23 88 -65 110 -106 20 -39 28 -162 13 -208 -32 -95 -111 -157
-201 -157 -182 0 -279 232 -167 396 58 85 163 117 245 75z m1182 -4 c88 -45
145 -176 120 -275 -33 -132 -110 -198 -222 -190 -228 17 -276 370 -63 469 53
25 110 23 165 -4z m1067 2 c78 -38 133 -133 133 -230 0 -61 -36 -143 -81 -184
-49 -44 -76 -55 -135 -55 -80 0 -143 42 -186 123 -32 59 -32 184 -1 242 58
110 170 153 270 104z m-5167 -184 c0 -172 1 -186 20 -205 28 -28 98 -27 134 1
14 11 33 34 41 50 18 33 31 198 21 252 -7 36 -8 37 -52 37 -41 0 -45 2 -42 23
3 21 8 22 96 25 l92 3 0 -200 c0 -188 1 -201 19 -211 11 -5 31 -10 45 -10 19
0 26 -5 26 -20 0 -18 -7 -20 -59 -20 -32 0 -73 -3 -90 -6 -31 -6 -31 -6 -31
36 l0 42 -40 -36 c-47 -42 -72 -50 -147 -44 -49 4 -61 10 -90 41 l-33 37 0
147 c0 185 -2 193 -46 193 -35 0 -49 12 -40 35 4 12 25 15 91 15 l85 0 0 -185z
m5500 -185 c39 -39 12 -100 -44 -100 -55 0 -79 50 -45 93 25 32 61 35 89 7z"/>
<path d="M9726 13991 c-4 -7 -5 -15 -2 -18 9 -9 19 4 14 18 -4 11 -6 11 -12 0z"/>
<path d="M9732 13918 c-10 -13 -9 -16 10 -21 13 -4 27 -1 33 5 7 8 5 9 -7 5
-11 -4 -18 0 -20 10 -3 14 -4 15 -16 1z"/>
<path d="M9652 13895 c-17 -19 -1 -19 24 0 14 11 15 14 4 14 -8 0 -21 -6 -28
-14z"/>
<path d="M9620 13840 c0 -5 4 -10 9 -10 6 0 13 5 16 10 3 6 -1 10 -9 10 -9 0
-16 -4 -16 -10z"/>
<path d="M9593 13803 c-17 -6 -16 -41 1 -58 18 -18 30 -6 13 13 -10 13 -9 15
7 9 10 -4 25 -2 32 4 12 10 10 14 -12 25 -14 8 -27 14 -28 13 0 0 -7 -3 -13
-6z"/>
<path d="M9640 13746 c0 -2 7 -6 15 -10 8 -3 15 -1 15 4 0 6 -7 10 -15 10 -8
0 -15 -2 -15 -4z"/>
<path d="M9560 13700 c0 -18 3 -19 21 -9 17 9 19 13 8 20 -22 14 -29 11 -29
-11z"/>
<path d="M9647 13693 c3 -7 9 -13 14 -13 5 0 9 6 9 13 0 8 -6 14 -14 14 -8 0
-12 -6 -9 -14z"/>
<path d="M9820 13626 c0 -9 7 -16 16 -16 17 0 14 22 -4 28 -7 2 -12 -3 -12
-12z"/>
<path d="M9558 13624 c-9 -8 3 -44 13 -38 11 7 12 44 1 44 -5 0 -11 -3 -14 -6z"/>
<path d="M9770 13615 c-12 -14 -11 -18 0 -25 10 -6 18 -4 23 6 13 23 -7 39
-23 19z"/>
<path d="M9824 13592 c-26 -4 -31 -52 -6 -52 8 0 12 3 9 7 -4 3 1 11 10 18 21
15 14 31 -13 27z"/>
<path d="M9705 13580 c3 -5 13 -10 22 -10 9 0 13 -6 10 -15 -6 -15 10 -32 20
-21 12 11 -20 56 -39 56 -11 0 -16 -4 -13 -10z"/>
<path d="M9540 13509 c0 -11 5 -17 10 -14 6 3 10 13 10 21 0 8 -4 14 -10 14
-5 0 -10 -9 -10 -21z"/>
<path d="M9815 13479 c-4 -6 -5 -12 -2 -15 2 -3 7 2 10 11 7 17 1 20 -8 4z"/>
<path d="M9640 13460 c0 -5 5 -10 11 -10 5 0 7 5 4 10 -3 6 -8 10 -11 10 -2 0
-4 -4 -4 -10z"/>
<path d="M9680 13440 c0 -5 5 -10 10 -10 6 0 10 5 10 10 0 6 -4 10 -10 10 -5
0 -10 -4 -10 -10z"/>
<path d="M9440 13292 c0 -15 26 -33 35 -24 5 4 5 1 1 -5 -10 -18 12 -53 29
-47 8 4 15 14 15 23 0 18 -35 53 -44 44 -3 -3 -12 0 -21 7 -8 7 -15 8 -15 2z"/>
<path d="M9445 13181 c-10 -17 11 -21 31 -6 18 14 18 14 -3 15 -12 0 -24 -4
-28 -9z"/>
<path d="M9520 13160 c0 -5 -7 -10 -16 -10 -8 0 -12 -4 -9 -10 10 -16 42 -12
49 6 9 22 8 24 -9 24 -8 0 -15 -4 -15 -10z"/>
<path d="M9495 13000 c-3 -5 1 -10 9 -10 9 0 16 5 16 10 0 6 -4 10 -9 10 -6 0
-13 -4 -16 -10z"/>
<path d="M9426 12942 c-3 -5 1 -9 9 -9 8 0 15 4 15 9 0 4 -4 8 -9 8 -6 0 -12
-4 -15 -8z"/>
<path d="M9380 12900 c0 -5 10 -10 23 -10 18 0 19 2 7 10 -19 13 -30 13 -30 0z"/>
<path d="M9221 12864 c0 -11 3 -14 6 -6 3 7 2 16 -1 19 -3 4 -6 -2 -5 -13z"/>
<path d="M9480 12821 c-8 -17 -7 -24 9 -40 11 -11 22 -17 25 -13 11 11 6 50
-8 61 -12 10 -17 8 -26 -8z"/>
<path d="M9560 12766 c0 -11 30 -39 36 -34 2 3 -5 13 -16 23 -11 10 -20 15
-20 11z"/>
<path d="M9475 12740 c-3 -5 1 -10 9 -10 9 0 16 -7 16 -16 0 -8 5 -12 10 -9
18 11 11 45 -9 45 -11 0 -23 -4 -26 -10z"/>
<path d="M9561 12224 c0 -11 3 -14 6 -6 3 7 2 16 -1 19 -3 4 -6 -2 -5 -13z"/>
<path d="M9560 12154 c0 -8 5 -12 10 -9 6 4 8 11 5 16 -9 14 -15 11 -15 -7z"/>
<path d="M9560 12089 c0 -5 5 -7 10 -4 6 3 10 8 10 11 0 2 -4 4 -10 4 -5 0
-10 -5 -10 -11z"/>
<path d="M9520 12020 c-24 -8 -23 -8 8 -9 20 -1 31 3 27 9 -3 6 -7 10 -8 9 -1
-1 -13 -5 -27 -9z"/>
<path d="M9020 12010 c0 -6 7 -10 15 -10 8 0 15 2 15 4 0 2 -7 6 -15 10 -8 3
-15 1 -15 -4z"/>
<path d="M9153 12003 c26 -2 67 -2 90 0 23 2 2 3 -48 3 -49 0 -68 -1 -42 -3z"/>
<path d="M9968 12003 c34 -2 90 -2 125 0 34 2 6 3 -63 3 -69 0 -97 -1 -62 -3z"/>
<path d="M10348 12003 c23 -2 61 -2 85 0 23 2 4 4 -43 4 -47 0 -66 -2 -42 -4z"/>
<path d="M9481 11744 c0 -11 3 -14 6 -6 3 7 2 16 -1 19 -3 4 -6 -2 -5 -13z"/>
<path d="M9890 11730 c0 -5 4 -10 9 -10 6 0 13 5 16 10 3 6 -1 10 -9 10 -9 0
-16 -4 -16 -10z"/>
<path d="M9081 11584 c0 -11 3 -14 6 -6 3 7 2 16 -1 19 -3 4 -6 -2 -5 -13z"/>
<path d="M10280 11570 c0 -5 5 -10 10 -10 6 0 10 5 10 10 0 6 -4 10 -10 10 -5
0 -10 -4 -10 -10z"/>
<path d="M9361 11474 c0 -11 3 -14 6 -6 3 7 2 16 -1 19 -3 4 -6 -2 -5 -13z"/>
<path d="M10445 11440 c3 -5 8 -10 11 -10 2 0 4 5 4 10 0 6 -5 10 -11 10 -5 0
-7 -4 -4 -10z"/>
<path d="M9401 11384 c0 -11 3 -14 6 -6 3 7 2 16 -1 19 -3 4 -6 -2 -5 -13z"/>
<path d="M10580 11270 c0 -5 5 -10 10 -10 6 0 10 5 10 10 0 6 -4 10 -10 10 -5
0 -10 -4 -10 -10z"/>
<path d="M9560 11200 c0 -11 5 -20 10 -20 6 0 10 9 10 20 0 11 -4 20 -10 20
-5 0 -10 -9 -10 -20z"/>
<path d="M9460 11181 c0 -12 5 -21 10 -21 6 0 10 6 10 14 0 8 -4 18 -10 21 -5
3 -10 -3 -10 -14z"/>
<path d="M9660 11159 c0 -25 4 -39 11 -37 6 2 10 7 10 11 -1 4 -1 21 -1 37 0
17 -4 30 -10 30 -5 0 -10 -18 -10 -41z"/>
<path d="M9880 11185 c0 -8 5 -15 10 -15 6 0 10 7 10 15 0 8 -4 15 -10 15 -5
0 -10 -7 -10 -15z"/>
<path d="M9580 11136 c0 -20 5 -36 10 -36 6 0 10 13 10 29 0 17 -4 33 -10 36
-6 4 -10 -8 -10 -29z"/>
<path d="M9760 11136 c0 -20 5 -36 10 -36 6 0 10 13 10 29 0 17 -4 33 -10 36
-6 4 -10 -8 -10 -29z"/>
<path d="M9860 11140 c0 -11 -4 -20 -9 -20 -5 0 -11 -9 -14 -20 -3 -13 0 -20
9 -20 8 0 14 9 14 20 0 11 5 20 10 20 6 0 10 9 10 20 0 11 -4 20 -10 20 -5 0
-10 -9 -10 -20z"/>
<path d="M9480 11129 c0 -23 22 -49 41 -49 8 0 7 6 -4 18 -10 10 -17 26 -17
35 0 9 -4 17 -10 17 -5 0 -10 -9 -10 -21z"/>
<path d="M9620 11130 c0 -19 3 -21 12 -12 9 9 9 15 0 24 -9 9 -12 7 -12 -12z"/>
<path d="M9360 11130 c0 -5 5 -10 10 -10 6 0 10 -5 10 -11 0 -20 41 -69 57
-69 14 0 14 3 -2 20 -10 11 -15 20 -12 20 4 0 -7 14 -23 30 -31 32 -40 36 -40
20z"/>
<path d="M9960 11115 c0 -8 -4 -15 -10 -15 -5 0 -10 -7 -10 -15 0 -8 -4 -15
-9 -15 -5 0 -11 -7 -15 -15 -11 -29 22 -15 36 15 7 17 16 30 20 30 5 0 8 7 8
15 0 8 -4 15 -10 15 -5 0 -10 -7 -10 -15z"/>
<path d="M9540 11110 c0 -5 5 -10 10 -10 6 0 10 5 10 10 0 6 -4 10 -10 10 -5
0 -10 -4 -10 -10z"/>
<path d="M9800 11110 c0 -5 5 -10 10 -10 6 0 10 5 10 10 0 6 -4 10 -10 10 -5
0 -10 -4 -10 -10z"/>
<path d="M8660 11090 c0 -5 5 -10 11 -10 5 0 7 5 4 10 -3 6 -8 10 -11 10 -2 0
-4 -4 -4 -10z"/>
<path d="M9440 11095 c0 -8 27 -35 34 -35 14 0 4 20 -14 30 -11 6 -20 8 -20 5z"/>
<path d="M10665 11090 c-3 -5 3 -10 14 -10 12 0 21 5 21 10 0 6 -6 10 -14 10
-8 0 -18 -4 -21 -10z"/>
<path d="M9875 11070 c-3 -5 1 -10 9 -10 9 0 16 5 16 10 0 6 -4 10 -9 10 -6 0
-13 -4 -16 -10z"/>
<path d="M10022 11034 c-24 -25 -42 -48 -39 -51 6 -5 97 82 97 92 0 13 -18 0
-58 -41z"/>
<path d="M9300 11055 c0 -14 53 -75 66 -75 11 0 12 4 3 18 -13 20 -69 67 -69
57z"/>
<path d="M9957 11034 c-8 -8 1 -24 14 -24 5 0 9 7 9 15 0 15 -12 20 -23 9z"/>
<path d="M9385 11019 c-11 -17 1 -21 15 -4 8 9 8 15 2 15 -6 0 -14 -5 -17 -11z"/>
<path d="M10418 11003 c7 -3 16 -2 19 1 4 3 -2 6 -13 5 -11 0 -14 -3 -6 -6z"/>
<path d="M10100 10970 c-19 -17 -41 -30 -47 -30 -7 0 -13 -7 -13 -15 0 -24 16
-18 60 25 50 48 49 62 0 20z"/>
<path d="M9225 10970 c-3 -5 0 -10 7 -10 7 0 26 -11 42 -25 16 -13 33 -22 38
-19 12 8 -26 44 -47 44 -8 0 -15 5 -15 10 0 6 -4 10 -9 10 -6 0 -13 -4 -16
-10z"/>
<path d="M9315 10971 c-6 -11 9 -23 19 -14 9 9 7 23 -3 23 -6 0 -12 -4 -16 -9z"/>
<path d="M8605 10900 c3 -5 10 -10 16 -10 5 0 9 5 9 10 0 6 -7 10 -16 10 -8 0
-12 -4 -9 -10z"/>
<path d="M9155 10890 c-3 -5 1 -10 10 -10 9 0 13 5 10 10 -3 6 -8 10 -10 10
-2 0 -7 -4 -10 -10z"/>
<path d="M9275 10890 c-3 -5 -1 -10 4 -10 6 0 11 5 11 10 0 6 -2 10 -4 10 -3
0 -8 -4 -11 -10z"/>
<path d="M10066 10891 c-4 -5 -2 -12 3 -15 5 -4 12 -2 15 3 4 5 2 12 -3 15 -5
4 -12 2 -15 -3z"/>
<path d="M10178 10883 c7 -3 16 -2 19 1 4 3 -2 6 -13 5 -11 0 -14 -3 -6 -6z"/>
<path d="M10716 10875 c27 -20 51 -20 34 0 -7 8 -22 15 -33 15 -20 0 -20 0 -1
-15z"/>
<path d="M9195 10870 c-4 -6 5 -10 19 -10 14 0 26 -4 26 -9 0 -5 7 -11 15 -15
27 -10 16 19 -12 32 -33 15 -40 15 -48 2z"/>
<path d="M10103 10866 c-24 -11 -29 -21 -14 -31 5 -3 16 2 24 10 9 8 23 15 32
15 9 0 13 5 10 10 -8 12 -23 11 -52 -4z"/>
<path d="M9475 10834 c-40 -21 -53 -34 -33 -34 9 0 18 5 20 11 2 7 31 12 71
12 68 1 107 -17 107 -50 0 -7 5 -13 10 -13 15 0 12 29 -5 46 -21 21 -80 44
-112 44 -15 0 -41 -7 -58 -16z"/>
<path d="M9768 10843 c-16 -2 -28 -8 -28 -13 0 -5 -9 -12 -20 -15 -20 -6 -29
-45 -10 -45 6 0 10 6 10 13 0 8 12 20 27 28 32 17 143 15 154 -3 4 -7 10 -10
14 -7 3 3 -3 13 -13 22 -20 18 -88 28 -134 20z"/>
<path d="M8858 10823 c7 -3 16 -2 19 1 4 3 -2 6 -13 5 -11 0 -14 -3 -6 -6z"/>
<path d="M10568 10823 c6 -2 18 -2 25 0 6 3 1 5 -13 5 -14 0 -19 -2 -12 -5z"/>
<path d="M9232 10811 c2 -7 7 -12 11 -12 12 1 9 15 -3 20 -7 2 -11 -2 -8 -8z"/>
<path d="M10508 10803 c7 -3 16 -2 19 1 4 3 -2 6 -13 5 -11 0 -14 -3 -6 -6z"/>
<path d="M9510 10779 c11 -8 12 -12 3 -16 -15 -6 -18 -53 -3 -53 6 0 10 -7 10
-15 0 -9 9 -15 25 -15 14 0 25 5 25 10 0 6 7 10 15 10 8 0 15 5 15 10 0 14
-11 12 -31 -6 -10 -9 -23 -13 -30 -9 -8 6 -7 10 5 17 9 5 16 18 16 28 0 11 5
20 10 20 6 0 10 -4 10 -10 0 -5 10 -10 23 -9 14 0 17 3 7 6 -8 4 -21 13 -29
20 -11 12 -15 12 -23 1 -7 -10 -10 -9 -19 5 -5 9 -18 17 -27 17 -15 0 -15 -2
-2 -11z"/>
<path d="M9175 10770 c-3 -5 2 -10 12 -10 10 0 28 -3 41 -6 16 -5 22 -2 22 10
0 12 -9 16 -34 16 -19 0 -38 -4 -41 -10z"/>
<path d="M9815 10770 c-4 -6 -10 -8 -14 -6 -4 3 -5 -8 -3 -25 3 -22 9 -29 28
-29 31 0 39 17 23 46 -13 26 -24 30 -34 14z"/>
<path d="M10107 10774 c-13 -13 3 -21 32 -16 17 2 28 8 25 13 -6 10 -48 12
-57 3z"/>
<path d="M9451 10763 c0 -5 4 -17 8 -28 7 -17 8 -17 13 8 4 19 1 27 -8 27 -8
0 -14 -3 -13 -7z"/>
<path d="M9883 10744 c0 -15 -7 -30 -14 -35 -9 -6 -10 -9 -2 -9 14 0 43 39 43
57 0 7 -6 13 -14 13 -8 0 -13 -11 -13 -26z"/>
<path d="M9745 10710 c-3 -5 3 -10 14 -10 12 0 21 5 21 10 0 6 -6 10 -14 10
-8 0 -18 -4 -21 -10z"/>
<path d="M9213 10684 c-3 -8 -1 -20 6 -27 8 -8 11 -4 11 16 0 30 -7 35 -17 11z"/>
<path d="M9800 10690 c-11 -7 -7 -10 18 -10 20 0 31 4 27 10 -8 13 -26 13 -45
0z"/>
<path d="M10125 10679 c-4 -6 -4 -13 -1 -16 8 -8 36 5 36 17 0 13 -27 13 -35
-1z"/>
<path d="M10745 10679 c-10 -15 3 -25 16 -12 7 7 7 13 1 17 -6 3 -14 1 -17 -5z"/>
<path d="M8580 10670 c0 -5 7 -10 15 -10 8 0 15 5 15 10 0 6 -7 10 -15 10 -8
0 -15 -4 -15 -10z"/>
<path d="M9640 10657 c0 -9 -4 -17 -10 -17 -5 0 -10 -4 -10 -10 0 -5 4 -10 9
-10 12 0 25 39 17 47 -3 4 -6 -1 -6 -10z"/>
<path d="M9702 10643 c2 -10 12 -19 23 -20 11 -2 14 0 8 3 -7 3 -13 12 -13 20
0 8 -5 14 -11 14 -6 0 -9 -8 -7 -17z"/>
<path d="M9215 10630 c-3 -5 1 -10 9 -10 9 0 16 5 16 10 0 6 -4 10 -9 10 -6 0
-13 -4 -16 -10z"/>
<path d="M9200 10590 c-26 -8 -23 -10 23 -16 18 -2 27 2 27 12 0 15 -12 16
-50 4z"/>
<path d="M9580 10587 c0 -25 17 -30 100 -31 64 -1 80 2 89 16 7 11 7 19 1 23
-6 3 -10 2 -10 -3 0 -15 -100 -25 -115 -12 -8 7 -19 9 -25 5 -6 -4 -17 -1 -25
5 -12 10 -15 9 -15 -3z"/>
<path d="M10106 10591 c-9 -14 5 -19 34 -10 14 4 20 7 13 8 -6 1 -18 4 -26 7
-8 3 -18 1 -21 -5z"/>
<path d="M9138 10563 c6 -2 18 -2 25 0 6 3 1 5 -13 5 -14 0 -19 -2 -12 -5z"/>
<path d="M8828 10543 c7 -3 16 -2 19 1 4 3 -2 6 -13 5 -11 0 -14 -3 -6 -6z"/>
<path d="M10488 10523 c7 -3 16 -2 19 1 4 3 -2 6 -13 5 -11 0 -14 -3 -6 -6z"/>
<path d="M9230 10499 c-26 -14 -30 -19 -14 -19 21 0 62 25 54 33 -3 3 -21 -4
-40 -14z"/>
<path d="M10080 10511 c0 -15 48 -41 65 -35 12 5 7 11 -20 25 -39 21 -45 23
-45 10z"/>
<path d="M10438 10483 c7 -3 16 -2 19 1 4 3 -2 6 -13 5 -11 0 -14 -3 -6 -6z"/>
<path d="M9270 10470 c-8 -5 -11 -12 -7 -16 4 -4 13 -2 19 4 15 15 7 24 -12
12z"/>
<path d="M10065 10470 c-3 -5 -1 -10 4 -10 6 0 11 5 11 10 0 6 -2 10 -4 10 -3
0 -8 -4 -11 -10z"/>
<path d="M9730 10460 c-8 -5 -11 -12 -8 -16 4 -3 14 1 23 10 18 17 9 21 -15 6z"/>
<path d="M10178 10463 c7 -3 16 -2 19 1 4 3 -2 6 -13 5 -11 0 -14 -3 -6 -6z"/>
<path d="M10725 10460 c-8 -13 -1 -24 14 -19 6 3 7 10 2 18 -6 10 -10 10 -16
1z"/>
<path d="M9290 10430 c-8 -5 -18 -6 -22 -4 -5 3 -8 2 -7 -3 4 -20 -2 -32 -18
-36 -16 -4 -16 -5 -1 -6 9 0 23 6 32 14 8 8 19 15 25 15 13 0 23 17 13 24 -4
2 -14 1 -22 -4z"/>
<path d="M10040 10426 c0 -16 65 -50 83 -42 9 3 9 5 -1 5 -7 1 -25 12 -40 26
-30 28 -42 31 -42 11z"/>
<path d="M9640 10418 c0 -8 15 -13 39 -13 28 -1 37 3 34 12 -7 17 -73 17 -73
1z"/>
<path d="M10388 10403 c7 -3 16 -2 19 1 4 3 -2 6 -13 5 -11 0 -14 -3 -6 -6z"/>
<path d="M10017 10394 c-8 -8 1 -24 14 -24 5 0 9 7 9 15 0 15 -12 20 -23 9z"/>
<path d="M9337 10352 c-10 -10 -17 -23 -17 -29 0 -6 -6 -13 -12 -16 -7 -2 -10
-7 -7 -10 3 -4 23 11 44 33 25 26 34 40 24 40 -9 0 -23 -8 -32 -18z"/>
<path d="M9980 10364 c0 -9 81 -84 91 -84 5 0 -11 20 -34 45 -41 42 -57 53
-57 39z"/>
<path d="M10148 10363 c7 -3 16 -2 19 1 4 3 -2 6 -13 5 -11 0 -14 -3 -6 -6z"/>
<path d="M9380 10325 c0 -9 5 -15 11 -13 6 2 11 8 11 13 0 5 -5 11 -11 13 -6
2 -11 -4 -11 -13z"/>
<path d="M9409 10293 c-8 -16 -18 -31 -22 -34 -5 -4 -7 -15 -4 -25 4 -17 6
-17 12 4 4 12 11 22 16 22 5 0 9 6 9 14 0 8 6 16 13 19 8 3 9 8 1 16 -8 8 -14
4 -25 -16z"/>
<path d="M9926 10283 c16 -25 52 -63 60 -63 2 0 1 7 -2 15 -4 8 -10 15 -15 15
-5 0 -9 7 -9 15 0 8 -4 15 -10 15 -5 0 -10 7 -10 15 0 8 -7 15 -16 15 -15 0
-14 -3 2 -27z"/>
<path d="M9460 10279 c0 -5 5 -7 10 -4 6 3 10 8 10 11 0 2 -4 4 -10 4 -5 0
-10 -5 -10 -11z"/>
<path d="M9870 10286 c0 -2 7 -9 15 -16 12 -10 15 -10 15 4 0 9 -7 16 -15 16
-8 0 -15 -2 -15 -4z"/>
<path d="M10305 10280 c3 -5 8 -10 11 -10 2 0 4 5 4 10 0 6 -5 10 -11 10 -5 0
-7 -4 -4 -10z"/>
<path d="M9490 10249 c-6 -11 -10 -28 -8 -37 3 -12 8 -7 21 17 20 40 20 41 7
41 -5 0 -14 -9 -20 -21z"/>
<path d="M9837 10250 c3 -11 9 -20 14 -20 5 0 9 -9 9 -20 0 -11 5 -20 10 -20
6 0 10 9 10 20 0 11 -4 20 -10 20 -5 0 -10 9 -10 20 0 11 -6 20 -14 20 -9 0
-12 -7 -9 -20z"/>
<path d="M10665 10260 c4 -6 11 -8 16 -5 14 9 11 15 -7 15 -8 0 -12 -5 -9 -10z"/>
<path d="M9533 10240 c-10 -15 -9 -17 8 -13 20 5 25 18 11 27 -4 2 -13 -4 -19
-14z"/>
<path d="M9580 10219 c0 -17 4 -28 10 -24 6 3 10 17 10 31 0 13 -4 24 -10 24
-5 0 -10 -14 -10 -31z"/>
<path d="M9728 10237 c-11 -9 -14 -18 -7 -28 7 -11 10 -10 15 8 8 31 24 19 24
-18 0 -16 5 -29 10 -29 6 0 10 18 10 40 0 43 -18 52 -52 27z"/>
<path d="M9798 10243 c7 -3 16 -2 19 1 4 3 -2 6 -13 5 -11 0 -14 -3 -6 -6z"/>
<path d="M10345 10240 c3 -5 8 -10 11 -10 2 0 4 5 4 10 0 6 -5 10 -11 10 -5 0
-7 -4 -4 -10z"/>
<path d="M9660 10189 c0 -24 4 -38 10 -34 6 3 10 22 10 41 0 19 -4 34 -10 34
-5 0 -10 -18 -10 -41z"/>
<path d="M10398 10203 c7 -3 16 -2 19 1 4 3 -2 6 -13 5 -11 0 -14 -3 -6 -6z"/>
<path d="M9460 10169 c0 -11 5 -17 10 -14 6 3 10 13 10 21 0 8 -4 14 -10 14
-5 0 -10 -9 -10 -21z"/>
<path d="M9880 10165 c0 -8 5 -15 10 -15 6 0 10 7 10 15 0 8 -4 15 -10 15 -5
0 -10 -7 -10 -15z"/>
<path d="M9560 10154 c0 -8 5 -12 10 -9 6 3 10 10 10 16 0 5 -4 9 -10 9 -5 0
-10 -7 -10 -16z"/>
<path d="M10418 10143 c7 -3 16 -2 19 1 4 3 -2 6 -13 5 -11 0 -14 -3 -6 -6z"/>
<path d="M8755 10080 c4 -6 11 -8 16 -5 14 9 11 15 -7 15 -8 0 -12 -5 -9 -10z"/>
<path d="M10566 10071 c-4 -7 -5 -15 -2 -18 9 -9 19 4 14 18 -4 11 -6 11 -12
0z"/>
<path d="M8900 9904 c0 -8 5 -12 10 -9 6 4 8 11 5 16 -9 14 -15 11 -15 -7z"/>
<path d="M10438 9903 c7 -3 16 -2 19 1 4 3 -2 6 -13 5 -11 0 -14 -3 -6 -6z"/>
<path d="M9055 9780 c4 -6 11 -8 16 -5 14 9 11 15 -7 15 -8 0 -12 -5 -9 -10z"/>
<path d="M10625 9333 c16 -3 33 -10 37 -16 4 -8 11 -7 22 2 8 7 20 10 25 7 5
-4 12 -2 16 4 4 6 -18 9 -62 9 -37 -1 -55 -4 -38 -6z"/>
<path d="M10972 9334 c9 -3 19 -15 22 -27 4 -18 4 -18 3 3 -1 17 -8 25 -22 27
-14 1 -15 0 -3 -3z"/>
<path d="M11725 9328 c11 -6 24 -17 28 -25 4 -7 16 -13 25 -12 10 0 12 3 5 6
-27 10 -12 32 25 36 21 2 6 4 -33 5 -57 1 -66 -1 -50 -10z"/>
<path d="M11883 9333 c9 -2 23 -2 30 0 6 3 -1 5 -18 5 -16 0 -22 -2 -12 -5z"/>
<path d="M10732 9270 c0 -14 2 -19 5 -12 2 6 2 18 0 25 -3 6 -5 1 -5 -13z"/>
<path d="M10650 9240 c0 -5 5 -10 11 -10 5 0 7 5 4 10 -3 6 -8 10 -11 10 -2 0
-4 -4 -4 -10z"/>
<path d="M11011 9224 c0 -11 3 -14 6 -6 3 7 2 16 -1 19 -3 4 -6 -2 -5 -13z"/>
<path d="M10990 9166 c0 -8 5 -18 10 -21 21 -13 9 -24 -20 -18 -33 6 -41 -11
-17 -36 10 -11 10 -14 0 -18 -7 -3 -13 -12 -13 -20 0 -14 3 -14 20 2 11 10 20
24 20 32 0 8 4 12 9 8 16 -9 23 14 17 51 -7 33 -26 48 -26 20z"/>
<path d="M10585 9159 c-4 -6 -5 -13 -2 -16 7 -7 27 6 27 18 0 12 -17 12 -25
-2z"/>
<path d="M11841 9081 c-9 -6 -11 -16 -7 -27 7 -18 8 -18 22 0 23 32 16 46 -15
27z"/>
<path d="M11795 9060 c-3 -5 -1 -10 4 -10 6 0 11 5 11 10 0 6 -2 10 -4 10 -3
0 -8 -4 -11 -10z"/>
<path d="M10865 9020 c-3 -5 3 -10 14 -10 12 0 21 5 21 10 0 6 -6 10 -14 10
-8 0 -18 -4 -21 -10z"/>
<path d="M7281 8993 c-18 -20 -4 -31 15 -11 9 9 12 18 7 21 -4 3 -14 -2 -22
-10z"/>
<path d="M11900 9000 c-12 -8 -11 -10 7 -10 12 0 25 5 28 10 8 13 -15 13 -35
0z"/>
<path d="M7358 8953 c19 -7 14 -31 -8 -43 -11 -6 -20 -17 -20 -25 0 -21 17
-18 30 5 6 11 19 20 30 20 18 0 17 2 -4 25 -13 14 -27 25 -32 24 -5 0 -3 -3 4
-6z"/>
<path d="M7245 8920 c-3 -5 -1 -10 4 -10 6 0 11 5 11 10 0 6 -2 10 -4 10 -3 0
-8 -4 -11 -10z"/>
<path d="M10946 8921 c-4 -5 -2 -12 3 -15 5 -4 12 -2 15 3 4 5 2 12 -3 15 -5
4 -12 2 -15 -3z"/>
<path d="M7471 8904 c0 -11 3 -14 6 -6 3 7 2 16 -1 19 -3 4 -6 -2 -5 -13z"/>
<path d="M10950 8880 c0 -5 5 -10 10 -10 6 0 10 5 10 10 0 6 -4 10 -10 10 -5
0 -10 -4 -10 -10z"/>
<path d="M10902 8838 c-7 -7 -12 -16 -12 -21 0 -5 7 -1 16 8 9 9 14 18 12 20
-2 3 -10 -1 -16 -7z"/>
<path d="M7311 8824 c0 -11 3 -14 6 -6 3 7 2 16 -1 19 -3 4 -6 -2 -5 -13z"/>
<path d="M7470 8805 c-18 -19 -20 -25 -8 -25 19 0 52 36 40 44 -5 3 -20 -6
-32 -19z"/>
<path d="M7405 8801 c-6 -11 9 -23 19 -14 9 9 7 23 -3 23 -6 0 -12 -4 -16 -9z"/>
<path d="M10990 8772 c0 -14 6 -22 16 -22 14 0 15 3 3 18 -7 9 -15 19 -16 21
-2 2 -3 -5 -3 -17z"/>
<path d="M7331 8774 c-1 -7 6 -27 14 -45 8 -19 14 -26 15 -17 0 9 3 23 6 32 4
10 1 16 -9 16 -8 0 -18 6 -20 13 -4 7 -6 8 -6 1z"/>
<path d="M8760 8745 c0 -8 4 -15 10 -15 5 0 7 7 4 15 -4 8 -8 15 -10 15 -2 0
-4 -7 -4 -15z"/>
<path d="M8860 8745 c0 -9 6 -12 15 -9 8 4 15 10 15 15 0 5 -7 9 -15 9 -8 0
-15 -7 -15 -15z"/>
<path d="M7310 8730 c0 -5 5 -10 10 -10 6 0 10 5 10 10 0 6 -4 10 -10 10 -5 0
-10 -4 -10 -10z"/>
<path d="M7111 8714 c0 -11 3 -14 6 -6 3 7 2 16 -1 19 -3 4 -6 -2 -5 -13z"/>
<path d="M7744 8685 c8 -8 18 -15 22 -15 3 0 1 7 -6 15 -7 8 -17 15 -22 15 -5
0 -3 -7 6 -15z"/>
<path d="M8875 8690 c3 -5 8 -10 11 -10 2 0 4 5 4 10 0 6 -5 10 -11 10 -5 0
-7 -4 -4 -10z"/>
<path d="M7110 8674 c0 -8 5 -12 10 -9 6 4 8 11 5 16 -9 14 -15 11 -15 -7z"/>
<path d="M7838 8673 c7 -3 16 -2 19 1 4 3 -2 6 -13 5 -11 0 -14 -3 -6 -6z"/>
<path d="M7335 8646 c-26 -27 -35 -48 -24 -62 5 -6 5 -24 0 -42 -5 -17 -7 -33
-3 -36 11 -11 22 -6 22 11 0 9 3 14 6 10 4 -3 13 0 21 8 12 13 17 13 37 0 12
-8 25 -12 29 -9 10 11 -12 44 -31 45 -14 0 -14 2 -2 6 8 4 23 16 32 27 10 12
25 28 33 37 12 12 13 19 5 24 -7 4 -18 -2 -26 -13 -8 -12 -20 -20 -27 -18 -6
1 -9 1 -4 -1 4 -3 7 -12 7 -20 0 -12 -7 -14 -31 -9 -17 3 -35 6 -40 6 -5 0 -9
4 -9 10 0 5 7 7 15 4 9 -4 18 1 21 11 11 26 -9 34 -31 11z"/>
<path d="M10785 8659 c-4 -6 -5 -11 -4 -12 2 -1 13 -7 24 -13 33 -18 49 -5 21
17 -28 22 -32 23 -41 8z"/>
<path d="M11350 8651 c0 -12 5 -21 10 -21 6 0 10 6 10 14 0 8 -4 18 -10 21 -5
3 -10 -3 -10 -14z"/>
<path d="M7112 8625 c0 -16 2 -22 5 -12 2 9 2 23 0 30 -3 6 -5 -1 -5 -18z"/>
<path d="M8888 8619 c-24 -13 -23 -31 2 -47 19 -11 20 -10 20 23 0 19 -1 35
-2 35 -2 0 -11 -5 -20 -11z"/>
<path d="M7498 8613 c7 -3 16 -2 19 1 4 3 -2 6 -13 5 -11 0 -14 -3 -6 -6z"/>
<path d="M7730 8594 c0 -8 5 -12 10 -9 6 4 8 11 5 16 -9 14 -15 11 -15 -7z"/>
<path d="M10801 8591 c-6 -11 -11 -22 -11 -25 0 -11 29 6 34 19 8 23 -12 28
-23 6z"/>
<path d="M8030 8590 c0 -5 7 -10 15 -10 8 0 15 5 15 10 0 6 -7 10 -15 10 -8 0
-15 -4 -15 -10z"/>
<path d="M10911 8584 c0 -11 3 -14 6 -6 3 7 2 16 -1 19 -3 4 -6 -2 -5 -13z"/>
<path d="M7425 8580 c-3 -5 4 -20 15 -32 21 -23 22 -23 36 -4 22 31 17 46 -15
46 -17 0 -33 -4 -36 -10z"/>
<path d="M7045 8559 c-5 -16 -10 -18 -21 -8 -11 9 -14 7 -14 -13 0 -13 -9 -34
-20 -46 -16 -17 -19 -26 -11 -40 10 -15 11 -15 17 6 3 12 10 22 15 22 5 0 9 9
9 20 0 11 4 20 9 20 5 0 19 14 31 30 17 24 18 30 6 30 -8 0 -18 -9 -21 -21z"/>
<path d="M7250 8560 c0 -11 4 -20 10 -20 5 0 14 9 20 20 9 17 8 20 -10 20 -13
0 -20 -7 -20 -20z"/>
<path d="M7630 8570 c0 -5 5 -10 10 -10 6 0 10 5 10 10 0 6 -4 10 -10 10 -5 0
-10 -4 -10 -10z"/>
<path d="M7200 8560 c-20 -12 -5 -24 16 -12 9 5 12 12 7 15 -5 3 -15 2 -23 -3z"/>
<path d="M8010 8545 c0 -14 5 -25 10 -25 6 0 10 11 10 25 0 14 -4 25 -10 25
-5 0 -10 -11 -10 -25z"/>
<path d="M7105 8550 c-12 -4 -27 -15 -35 -25 -12 -15 -11 -19 10 -36 l25 -19
-42 0 c-24 0 -43 -5 -43 -11 0 -13 25 -39 38 -39 6 0 8 -10 5 -21 -4 -16 -2
-20 8 -17 8 3 13 12 11 21 -2 12 5 15 24 14 38 -3 45 45 11 75 l-24 21 26 23
c27 24 22 29 -14 14z"/>
<path d="M8835 8550 c3 -5 10 -10 16 -10 5 0 9 5 9 10 0 6 -7 10 -16 10 -8 0
-12 -4 -9 -10z"/>
<path d="M12190 8550 c0 -5 -7 -10 -15 -10 -13 0 -12 -4 4 -22 20 -20 20 -38
0 -38 -5 0 -9 7 -9 16 0 11 -5 14 -17 10 -9 -4 -20 -1 -25 6 -5 8 -8 1 -8 -19
0 -35 17 -53 31 -32 6 10 11 11 19 3 8 -8 7 -14 -5 -24 -24 -20 -18 -40 13
-40 37 0 45 9 27 27 -19 19 -19 33 0 33 11 0 13 7 9 29 -4 16 -1 32 5 35 8 5
7 12 -3 22 -17 16 -26 18 -26 4z"/>
<path d="M10766 8542 c-2 -4 -1 -14 5 -22 7 -12 9 -10 9 8 0 23 -5 28 -14 14z"/>
<path d="M12035 8537 c-4 -10 -5 -21 -1 -24 10 -10 18 4 13 24 -4 17 -4 17
-12 0z"/>
<path d="M7166 8505 c-9 -23 -8 -25 10 -25 8 0 12 -5 9 -10 -8 -13 4 -50 16
-50 5 0 7 10 4 23 -4 13 -7 31 -9 40 -4 28 -22 41 -30 22z"/>
<path d="M8030 8501 c0 -5 5 -13 10 -16 6 -3 10 -2 10 4 0 5 -4 13 -10 16 -5
3 -10 2 -10 -4z"/>
<path d="M11311 8494 c0 -11 3 -14 6 -6 3 7 2 16 -1 19 -3 4 -6 -2 -5 -13z"/>
<path d="M7241 8483 c7 -10 15 -20 16 -22 2 -2 3 5 3 17 0 14 -6 22 -16 22
-14 0 -15 -3 -3 -17z"/>
<path d="M7460 8485 c-8 -9 -8 -15 -2 -15 18 0 42 12 42 21 0 14 -26 10 -40
-6z"/>
<path d="M7680 8496 c0 -2 9 -6 20 -9 11 -3 20 -1 20 4 0 5 -9 9 -20 9 -11 0
-20 -2 -20 -4z"/>
<path d="M10745 8487 c-4 -10 -5 -21 -1 -24 10 -10 18 4 13 24 -4 17 -4 17
-12 0z"/>
<path d="M7831 8464 c0 -11 3 -14 6 -6 3 7 2 16 -1 19 -3 4 -6 -2 -5 -13z"/>
<path d="M7410 8440 c0 -5 5 -10 11 -10 5 0 7 5 4 10 -3 6 -8 10 -11 10 -2 0
-4 -4 -4 -10z"/>
<path d="M8105 8430 c-3 -5 1 -13 10 -16 22 -9 29 1 11 15 -10 8 -16 9 -21 1z"/>
<path d="M12090 8433 c0 -5 5 -15 10 -23 8 -12 10 -11 10 8 0 12 -4 22 -10 22
-5 0 -10 -3 -10 -7z"/>
<path d="M12350 8420 c0 -11 7 -20 15 -20 17 0 18 2 9 24 -9 23 -24 20 -24 -4z"/>
<path d="M10605 8421 c-3 -5 -1 -12 5 -16 5 -3 10 1 10 9 0 18 -6 21 -15 7z"/>
<path d="M6977 8413 c-11 -11 -8 -20 8 -20 8 0 15 6 15 14 0 14 -12 17 -23 6z"/>
<path d="M7798 8413 c7 -3 16 -2 19 1 4 3 -2 6 -13 5 -11 0 -14 -3 -6 -6z"/>
<path d="M10830 8399 c0 -11 5 -17 10 -14 6 3 10 13 10 21 0 8 -4 14 -10 14
-5 0 -10 -9 -10 -21z"/>
<path d="M11238 8398 c-10 -12 -18 -31 -19 -43 0 -11 -3 -14 -6 -7 -5 14 -23
16 -23 3 0 -16 31 -21 48 -8 9 6 18 27 20 45 3 38 2 38 -20 10z"/>
<path d="M11754 8409 c-3 -6 -1 -16 5 -22 8 -8 11 -5 11 11 0 24 -5 28 -16 11z"/>
<path d="M11795 8410 c3 -5 8 -10 11 -10 2 0 4 5 4 10 0 6 -5 10 -11 10 -5 0
-7 -4 -4 -10z"/>
<path d="M12030 8406 c0 -17 14 -29 23 -20 8 8 -3 34 -14 34 -5 0 -9 -6 -9
-14z"/>
<path d="M10677 8399 c7 -7 15 -10 18 -7 3 3 -2 9 -12 12 -14 6 -15 5 -6 -5z"/>
<path d="M8567 8387 c-3 -7 1 -21 9 -32 13 -17 14 -17 14 13 0 32 -14 43 -23
19z"/>
<path d="M6942 8378 c-7 -7 -12 -8 -12 -4 0 5 -6 3 -14 -4 -22 -17 -9 -38 20
-32 17 3 24 11 24 28 0 27 -2 28 -18 12z"/>
<path d="M7152 8368 c3 -7 12 -14 21 -16 12 -2 15 1 11 12 -7 19 -38 22 -32 4z"/>
<path d="M7590 8370 c0 -5 5 -10 10 -10 6 0 10 5 10 10 0 6 -4 10 -10 10 -5 0
-10 -4 -10 -10z"/>
<path d="M10638 8373 c6 -2 18 -2 25 0 6 3 1 5 -13 5 -14 0 -19 -2 -12 -5z"/>
<path d="M12070 8360 c0 -11 5 -20 10 -20 6 0 10 9 10 20 0 11 -4 20 -10 20
-5 0 -10 -9 -10 -20z"/>
<path d="M12410 8370 c0 -5 5 -10 10 -10 6 0 10 5 10 10 0 6 -4 10 -10 10 -5
0 -10 -4 -10 -10z"/>
<path d="M7100 8351 c0 -28 14 -33 28 -11 9 15 8 19 -4 24 -23 9 -24 8 -24
-13z"/>
<path d="M6990 8350 c0 -5 7 -7 15 -4 8 4 15 8 15 10 0 2 -7 4 -15 4 -8 0 -15
-4 -15 -10z"/>
<path d="M12441 8344 c0 -11 3 -14 6 -6 3 7 2 16 -1 19 -3 4 -6 -2 -5 -13z"/>
<path d="M7590 8334 c0 -8 5 -12 10 -9 6 4 8 11 5 16 -9 14 -15 11 -15 -7z"/>
<path d="M11350 8340 c0 -5 5 -10 11 -10 5 0 7 5 4 10 -3 6 -8 10 -11 10 -2 0
-4 -4 -4 -10z"/>
<path d="M12390 8340 c0 -5 5 -10 10 -10 6 0 10 5 10 10 0 6 -4 10 -10 10 -5
0 -10 -4 -10 -10z"/>
<path d="M7050 8334 c0 -20 27 -37 36 -23 4 7 3 9 -4 5 -6 -3 -15 2 -21 11 -6
10 -11 13 -11 7z"/>
<path d="M7210 8330 c0 -5 4 -10 9 -10 6 0 13 5 16 10 3 6 -1 10 -9 10 -9 0
-16 -4 -16 -10z"/>
<path d="M8157 8333 c-4 -3 -7 -11 -7 -17 0 -6 5 -5 12 2 6 6 9 14 7 17 -3 3
-9 2 -12 -2z"/>
<path d="M11750 8315 c0 -14 5 -25 10 -25 6 0 10 11 10 25 0 14 -4 25 -10 25
-5 0 -10 -11 -10 -25z"/>
<path d="M6984 8318 c-4 -6 0 -15 9 -20 9 -4 23 -15 32 -24 18 -18 19 -14 4
20 -13 28 -35 40 -45 24z"/>
<path d="M7770 8314 c0 -8 5 -12 10 -9 6 3 10 10 10 16 0 5 -4 9 -10 9 -5 0
-10 -7 -10 -16z"/>
<path d="M7700 8305 c-7 -9 -11 -18 -8 -20 3 -3 11 1 18 10 7 9 11 18 8 20 -3
3 -11 -1 -18 -10z"/>
<path d="M12133 8305 c-3 -9 -3 -18 0 -21 9 -9 27 6 27 22 0 19 -19 18 -27 -1z"/>
<path d="M7730 8303 c0 -6 -3 -18 -6 -27 -4 -10 -1 -16 9 -16 8 0 17 -6 20
-12 2 -7 7 -11 10 -8 3 3 -3 21 -13 40 -11 19 -19 30 -20 23z"/>
<path d="M11892 8303 c-17 -7 -5 -23 19 -23 10 0 19 7 19 15 0 15 -14 18 -38
8z"/>
<path d="M8098 8294 c-4 -3 -14 -7 -24 -8 -10 -2 -20 -8 -22 -14 -2 -7 7 -9
25 -7 15 2 31 4 36 4 10 1 9 31 -1 31 -5 0 -11 -3 -14 -6z"/>
<path d="M8415 8290 c3 -5 8 -10 11 -10 2 0 4 5 4 10 0 6 -5 10 -11 10 -5 0
-7 -4 -4 -10z"/>
<path d="M12016 8281 c-4 -7 -5 -15 -2 -18 9 -9 19 4 14 18 -4 11 -6 11 -12 0z"/>
<path d="M8146 8264 c-8 -21 -8 -24 4 -24 5 0 14 9 20 20 8 16 8 20 -4 20 -7
0 -17 -7 -20 -16z"/>
<path d="M11310 8266 c0 -9 5 -16 10 -16 6 0 10 4 10 9 0 6 -4 13 -10 16 -5 3
-10 -1 -10 -9z"/>
<path d="M7140 8260 c-13 -8 -12 -10 3 -10 9 0 17 5 17 10 0 12 -1 12 -20 0z"/>
<path d="M7841 8261 c-10 -6 -9 -10 3 -14 8 -3 18 -2 21 3 8 13 -9 20 -24 11z"/>
<path d="M12498 8241 c-3 -23 -2 -28 8 -20 12 10 13 33 2 44 -3 3 -8 -8 -10
-24z"/>
<path d="M7696 8244 c-4 -9 -4 -19 -1 -22 2 -3 7 3 11 12 4 9 4 19 1 22 -2 3
-7 -3 -11 -12z"/>
<path d="M11430 8255 c0 -5 5 -17 10 -25 5 -8 10 -10 10 -5 0 6 -5 17 -10 25
-5 8 -10 11 -10 5z"/>
<path d="M12090 8250 c0 -5 5 -10 10 -10 6 0 10 5 10 10 0 6 -4 10 -10 10 -5
0 -10 -4 -10 -10z"/>
<path d="M7050 8234 c0 -8 5 -12 10 -9 6 4 8 11 5 16 -9 14 -15 11 -15 -7z"/>
<path d="M7110 8234 c0 -8 5 -12 10 -9 6 4 8 11 5 16 -9 14 -15 11 -15 -7z"/>
<path d="M11745 8230 c3 -5 10 -10 16 -10 5 0 9 5 9 10 0 6 -7 10 -16 10 -8 0
-12 -4 -9 -10z"/>
<path d="M7740 8221 c-8 -3 -16 -18 -17 -33 -1 -21 3 -28 17 -28 10 0 22 5 25
10 4 6 10 8 15 5 4 -3 13 1 19 9 8 10 8 16 -1 23 -20 16 -42 21 -58 14z"/>
<path d="M7156 8207 c-14 -10 -16 -18 -9 -31 8 -15 11 -16 22 -2 7 8 11 22 9
31 -3 14 -5 14 -22 2z"/>
<path d="M8045 8210 c3 -5 10 -10 16 -10 5 0 9 5 9 10 0 6 -7 10 -16 10 -8 0
-12 -4 -9 -10z"/>
<path d="M11990 8211 c0 -6 5 -13 10 -16 6 -3 10 1 10 9 0 9 -4 16 -10 16 -5
0 -10 -4 -10 -9z"/>
<path d="M7210 8206 c0 -3 7 -11 15 -20 14 -14 14 -17 -4 -35 -18 -18 -18 -31
0 -31 10 0 26 52 21 73 -3 14 -32 26 -32 13z"/>
<path d="M7846 8195 c-3 -8 -15 -15 -26 -15 -12 0 -18 -4 -15 -10 3 -5 15 -10
26 -10 12 0 19 -7 19 -20 0 -11 5 -20 10 -20 6 0 10 20 10 45 0 44 -12 60 -24
30z"/>
<path d="M7910 8181 c0 -10 -8 -33 -17 -50 -22 -38 -7 -62 20 -31 9 11 12 20
7 20 -6 0 -10 5 -10 10 0 6 9 10 20 10 11 0 20 5 20 10 0 6 -4 10 -10 10 -5 0
-10 6 -10 14 0 8 -4 18 -10 21 -5 3 -10 -3 -10 -14z m0 -65 c0 -3 -4 -8 -10
-11 -5 -3 -10 -1 -10 4 0 6 5 11 10 11 6 0 10 -2 10 -4z"/>
<path d="M11306 8182 c-3 -6 -1 -14 5 -17 15 -10 25 3 12 16 -7 7 -13 7 -17 1z"/>
<path d="M7980 8165 c-7 -9 -10 -18 -7 -22 8 -7 37 15 37 28 0 14 -16 11 -30
-6z"/>
<path d="M7690 8155 c0 -8 5 -15 10 -15 6 0 10 7 10 15 0 8 -4 15 -10 15 -5 0
-10 -7 -10 -15z"/>
<path d="M11825 8150 c-3 -5 -1 -10 4 -10 6 0 11 5 11 10 0 6 -2 10 -4 10 -3
0 -8 -4 -11 -10z"/>
<path d="M7730 8134 c0 -8 5 -12 10 -9 6 4 8 11 5 16 -9 14 -15 11 -15 -7z"/>
<path d="M7145 8130 c3 -5 8 -10 11 -10 2 0 4 5 4 10 0 6 -5 10 -11 10 -5 0
-7 -4 -4 -10z"/>
<path d="M7651 8124 c0 -11 3 -14 6 -6 3 7 2 16 -1 19 -3 4 -6 -2 -5 -13z"/>
<path d="M11926 8095 c-9 -14 -13 -25 -9 -25 13 1 38 24 41 38 4 21 -15 13
-32 -13z"/>
<path d="M7090 8089 c0 -13 8 -23 21 -26 11 -3 18 -11 16 -17 -2 -6 -1 -20 4
-31 6 -16 8 -13 8 14 1 24 -6 41 -24 57 -24 22 -25 22 -25 3z"/>
<path d="M7271 8084 c0 -11 3 -14 6 -6 3 7 2 16 -1 19 -3 4 -6 -2 -5 -13z"/>
<path d="M11750 8091 c0 -6 5 -13 10 -16 6 -3 10 1 10 9 0 9 -4 16 -10 16 -5
0 -10 -4 -10 -9z"/>
<path d="M6970 8044 c0 -8 5 -12 10 -9 6 4 8 11 5 16 -9 14 -15 11 -15 -7z"/>
<path d="M7351 8024 c0 -11 3 -14 6 -6 3 7 2 16 -1 19 -3 4 -6 -2 -5 -13z"/>
<path d="M11770 7990 c0 -5 5 -10 10 -10 6 0 10 5 10 10 0 6 -4 10 -10 10 -5
0 -10 -4 -10 -10z"/>
<path d="M7137 7973 c-4 -3 -7 -13 -7 -20 0 -12 3 -12 15 1 8 8 15 17 15 20 0
8 -15 7 -23 -1z"/>
<path d="M7370 7960 c0 -6 7 -10 15 -10 8 0 15 2 15 4 0 2 -7 6 -15 10 -8 3
-15 1 -15 -4z"/>
<path d="M7171 7944 c0 -11 3 -14 6 -6 3 7 2 16 -1 19 -3 4 -6 -2 -5 -13z"/>
<path d="M6696 7985 c-17 -13 -18 -15 -2 -21 20 -8 29 -1 24 20 -3 13 -6 13
-22 1z"/>
<path d="M7166 7803 c-11 -11 -6 -23 9 -23 8 0 15 4 15 9 0 13 -16 22 -24 14z"/>
<path d="M6500 7510 c0 -5 5 -10 10 -10 6 0 10 5 10 10 0 6 -4 10 -10 10 -5 0
-10 -4 -10 -10z"/>
<path d="M6546 7441 c-4 -7 -5 -15 -2 -18 9 -9 19 4 14 18 -4 11 -6 11 -12 0z"/>
<path d="M12551 5867 c-40 -20 -62 -60 -73 -133 -21 -137 25 -244 105 -244 45
0 91 38 108 87 6 19 11 70 11 113 0 91 -25 151 -72 175 -35 18 -48 19 -79 2z"/>
<path d="M14788 5865 c-15 -9 -35 -30 -45 -48 -21 -41 -30 -191 -14 -240 29
-87 115 -116 171 -57 45 49 64 165 39 253 -22 80 -94 124 -151 92z"/>
<path d="M9781 5876 c-34 -19 -50 -54 -51 -108 0 -59 16 -96 51 -114 57 -29
110 -9 135 52 48 114 -39 223 -135 170z"/>
<path d="M9711 5411 c-31 -29 -36 -45 -25 -76 27 -68 276 -56 299 15 21 66
-21 90 -155 90 -83 0 -90 -2 -119 -29z"/>
<path d="M4997 5679 c-88 -21 -135 -71 -122 -130 12 -55 74 -75 138 -44 48 24
70 61 75 127 l4 58 -28 -1 c-16 -1 -46 -5 -67 -10z"/>
<path d="M6379 5875 c-45 -24 -63 -78 -63 -185 0 -53 5 -111 12 -132 32 -92
136 -107 178 -26 36 70 34 245 -3 308 -28 48 -76 61 -124 35z"/>
<path d="M8063 5878 c-42 -20 -65 -88 -65 -192 0 -103 22 -175 60 -195 55 -30
121 1 143 67 20 57 17 198 -4 255 -26 67 -78 92 -134 65z"/>
<path d="M11426 5679 c-92 -22 -143 -86 -114 -146 25 -53 112 -56 163 -5 34
34 45 62 45 118 0 42 -1 44 -27 43 -16 -1 -46 -5 -67 -10z"/>
<path d="M13090 5862 c-35 -36 -50 -87 -50 -175 0 -136 38 -207 109 -207 72 0
111 72 111 205 0 90 -15 141 -50 177 -38 38 -82 38 -120 0z"/>
<path d="M14266 5869 c-39 -31 -60 -114 -53 -214 7 -120 41 -175 109 -175 46
0 82 33 98 89 14 49 13 185 -2 233 -23 77 -97 110 -152 67z"/>
<path d="M15348 5875 c-40 -22 -63 -93 -63 -195 1 -98 16 -151 52 -180 28 -22
73 -26 105 -9 38 20 61 95 61 194 0 107 -21 168 -64 190 -35 18 -56 18 -91 0z"/>
</g>
</svg>
